<?xml version="1.0" encoding="UTF-8" standalone="no"?><svg xmlns="http://www.w3.org/2000/svg" xmlns:xlink="http://www.w3.org/1999/xlink" contentScriptType="application/ecmascript" contentStyleType="text/css" height="158px" preserveAspectRatio="none" style="width:261px;height:158px;background:#FFFFFF;" version="1.1" viewBox="0 0 261 158" width="261px" zoomAndPan="magnify"><defs><filter height="300%" id="fl8bffusnwz2q" width="300%" x="-1" y="-1"><feGaussianBlur result="blurOut" stdDeviation="2.0"/><feColorMatrix in="blurOut" result="blurOut2" type="matrix" values="0 0 0 0 0 0 0 0 0 0 0 0 0 0 0 0 0 0 .4 0"/><feOffset dx="4.0" dy="4.0" in="blurOut2" result="blurOut3"/><feBlend in="SourceGraphic" in2="blurOut3" mode="normal"/></filter></defs><g><!--MD5=[cd09e43f1cb39691797eb02fd65d7e24]
class Projects--><rect codeLine="1" fill="#FEFECE" filter="url(#fl8bffusnwz2q)" height="137.6328" id="Projects" style="stroke:#A80036;stroke-width:1.5;" width="240" x="7" y="7"/><ellipse cx="97.25" cy="23" fill="#ADD1B2" rx="11" ry="11" style="stroke:#A80036;stroke-width:1.0;"/><path d="M100.2188,28.6406 Q99.6406,28.9375 99,29.0781 Q98.3594,29.2344 97.6563,29.2344 Q95.1563,29.2344 93.8281,27.5938 Q92.5156,25.9375 92.5156,22.8125 Q92.5156,19.6875 93.8281,18.0313 Q95.1563,16.375 97.6563,16.375 Q98.3594,16.375 99,16.5313 Q99.6563,16.6875 100.2188,16.9844 L100.2188,19.7031 Q99.5938,19.125 99,18.8594 Q98.4063,18.5781 97.7813,18.5781 Q96.4375,18.5781 95.75,19.6563 Q95.0625,20.7188 95.0625,22.8125 Q95.0625,24.9063 95.75,25.9844 Q96.4375,27.0469 97.7813,27.0469 Q98.4063,27.0469 99,26.7813 Q99.5938,26.5 100.2188,25.9219 L100.2188,28.6406 Z " fill="#000000"/><text fill="#000000" font-family="sans-serif" font-size="12" lengthAdjust="spacing" textLength="51" x="117.75" y="27.1543">Projects</text><line style="stroke:#A80036;stroke-width:1.5;" x1="8" x2="246" y1="39" y2="39"/><rect fill="none" height="6" style="stroke:#C82930;stroke-width:1.0;" width="6" x="15" y="47"/><text fill="#000000" font-family="sans-serif" font-size="11" lengthAdjust="spacing" textLength="74" x="27" y="53.2104">id: unique int</text><ellipse cx="18" cy="62.8047" rx="3" ry="3" style="stroke:#038048;stroke-width:1.0;fill:none;"/><text fill="#000000" font-family="sans-serif" font-size="11" font-weight="bold" lengthAdjust="spacing" textLength="81" x="27" y="66.0151">organization</text><text fill="#000000" font-family="sans-serif" font-size="11" lengthAdjust="spacing" textLength="39" x="108" y="66.0151">: ref to</text><text fill="#000000" font-family="sans-serif" font-size="11" font-weight="bold" lengthAdjust="spacing" textLength="90" x="151" y="66.0151">Organizations</text><ellipse cx="18" cy="75.6094" rx="3" ry="3" style="stroke:#038048;stroke-width:1.0;fill:none;"/><text fill="#000000" font-family="sans-serif" font-size="11" lengthAdjust="spacing" textLength="121" x="27" y="78.8198">project_id: unique str</text><ellipse cx="18" cy="88.4141" rx="3" ry="3" style="stroke:#038048;stroke-width:1.0;fill:none;"/><text fill="#000000" font-family="sans-serif" font-size="11" lengthAdjust="spacing" textLength="56" x="27" y="91.6245">name: str</text><ellipse cx="18" cy="101.2188" rx="3" ry="3" style="stroke:#038048;stroke-width:1.0;fill:none;"/><text fill="#000000" font-family="sans-serif" font-size="11" lengthAdjust="spacing" textLength="87" x="27" y="104.4292">description: str</text><ellipse cx="18" cy="114.0234" rx="3" ry="3" style="stroke:#038048;stroke-width:1.0;fill:none;"/><text fill="#000000" font-family="sans-serif" font-size="11" lengthAdjust="spacing" textLength="97" x="27" y="117.2339">configs: json dict</text><ellipse cx="18" cy="126.8281" rx="3" ry="3" style="stroke:#038048;stroke-width:1.0;fill:none;"/><text fill="#000000" font-family="sans-serif" font-size="11" lengthAdjust="spacing" textLength="85" x="27" y="130.0386">rules: json dict</text><line style="stroke:#A80036;stroke-width:1.5;" x1="8" x2="246" y1="136.6328" y2="136.6328"/><!--MD5=[abc6a3acd7c231de6b1bd217f36e9e42]
@startuml
    class Projects {
        - id: unique int
        + **organization**: ref to **Organizations**
        + project_id: unique str
        + name: str
        + description: str
        + configs: json dict
        + rules: json dict
    }
@enduml

PlantUML version 1.2022.0(Tue Jan 11 16:16:42 UTC 2022)
(GPL source distribution)
Java Runtime: OpenJDK Runtime Environment
JVM: OpenJDK 64-Bit Server VM
Default Encoding: UTF-8
Language: en
Country: null
--></g></svg>