<?xml version="1.0" encoding="UTF-8" standalone="no"?><svg xmlns="http://www.w3.org/2000/svg" xmlns:xlink="http://www.w3.org/1999/xlink" contentScriptType="application/ecmascript" contentStyleType="text/css" height="624px" preserveAspectRatio="none" style="width:1012px;height:624px;background:#FFFFFF;" version="1.1" viewBox="0 0 1012 624" width="1012px" zoomAndPan="magnify"><defs><filter height="300%" id="f1chd5otpjlgde" width="300%" x="-1" y="-1"><feGaussianBlur result="blurOut" stdDeviation="2.0"/><feColorMatrix in="blurOut" result="blurOut2" type="matrix" values="0 0 0 0 0 0 0 0 0 0 0 0 0 0 0 0 0 0 .4 0"/><feOffset dx="4.0" dy="4.0" in="blurOut2" result="blurOut3"/><feBlend in="SourceGraphic" in2="blurOut3" mode="normal"/></filter></defs><g><!--MD5=[51a32c4ec503d26995ff86900fd263c9]
cluster ide--><rect fill="#FFFFFF" filter="url(#f1chd5otpjlgde)" height="106" style="stroke:#000000;stroke-width:1.5;" width="356" x="382.5" y="7"/><line style="stroke:#000000;stroke-width:1.5;" x1="382.5" x2="738.5" y1="27.2969" y2="27.2969"/><text fill="#000000" font-family="sans-serif" font-size="14" font-weight="bold" lengthAdjust="spacing" textLength="24" x="548.5" y="21.9951">IDE</text><!--MD5=[a7ba5e77c394f141bf9549b7afd8e9b5]
cluster df--><rect fill="#66AAFF" filter="url(#f1chd5otpjlgde)" height="342.5" style="stroke:#000000;stroke-width:1.5;" width="316" x="26.5" y="146"/><line style="stroke:#000000;stroke-width:1.5;" x1="26.5" x2="342.5" y1="182.5938" y2="182.5938"/><text fill="#000000" font-family="sans-serif" font-size="14" font-weight="bold" lengthAdjust="spacing" textLength="213" x="78" y="160.9951">Documentation Framework</text><text fill="#000000" font-family="sans-serif" font-size="14" font-weight="bold" lengthAdjust="spacing" textLength="238" x="65.5" y="177.292">(MkDocs, AsciiDoc, Sphinx, ...)</text><!--MD5=[2ce6bf2f725ec3fddfdb3be23c2410e4]
cluster on--><rect fill="#66FFAA" filter="url(#f1chd5otpjlgde)" height="138" style="stroke:#000000;stroke-width:1.5;" width="546" x="380.5" y="261"/><line style="stroke:#000000;stroke-width:1.5;" x1="380.5" x2="926.5" y1="281.2969" y2="281.2969"/><text fill="#000000" font-family="sans-serif" font-size="14" font-weight="bold" lengthAdjust="spacing" textLength="156" x="575.5" y="275.9951">Open-Needs Server</text><!--MD5=[e8c6c8f2634c0caf258b19e7417658db]
cluster Web browser--><rect fill="#FFFFFF" filter="url(#f1chd5otpjlgde)" height="91" style="stroke:#000000;stroke-width:1.5;" width="342" x="303.5" y="521.5"/><line style="stroke:#000000;stroke-width:1.5;" x1="303.5" x2="645.5" y1="541.7969" y2="541.7969"/><text fill="#000000" font-family="sans-serif" font-size="14" font-weight="bold" lengthAdjust="spacing" textLength="107" x="421" y="536.4951">Web browser</text><!--MD5=[7579d5565d2521d5936cec86ed3dadee]
cluster service--><rect fill="#FFFFFF" filter="url(#f1chd5otpjlgde)" height="91" style="stroke:#000000;stroke-width:1.5;" width="317" x="683.5" y="521.5"/><line style="stroke:#000000;stroke-width:1.5;" x1="683.5" x2="1000.5" y1="541.7969" y2="541.7969"/><text fill="#000000" font-family="sans-serif" font-size="14" font-weight="bold" lengthAdjust="spacing" textLength="74" x="805" y="536.4951">Service X</text><!--MD5=[7c6cc8532223f11e77b82be6cbdb2ea3]
entity ext--><rect fill="#66FFAA" filter="url(#f1chd5otpjlgde)" height="38.5938" style="stroke:#000000;stroke-width:1.5;" width="115" x="399" y="50"/><text fill="#000000" font-family="sans-serif" font-size="14" lengthAdjust="spacing" textLength="88" x="409" y="65.9951">Open-Needs</text><text fill="#000000" font-family="sans-serif" font-size="14" lengthAdjust="spacing" textLength="95" x="409" y="82.292">IDE extension</text><path d="M584.5,42 L584.5,65.5 L514.21,69.5 L584.5,73.5 L584.5,97.3984 A0,0 0 0 0 584.5,97.3984 L722.5,97.3984 A0,0 0 0 0 722.5,97.3984 L722.5,52 L712.5,42 L584.5,42 A0,0 0 0 0 584.5,42 " fill="#FBFB77" filter="url(#f1chd5otpjlgde)" style="stroke:#A80036;stroke-width:1.0;"/><path d="M712.5,42 L712.5,52 L722.5,52 L712.5,42 " fill="#FBFB77" style="stroke:#A80036;stroke-width:1.0;"/><text fill="#000000" font-family="sans-serif" font-size="13" lengthAdjust="spacing" textLength="82" x="590.5" y="59.0669">verifies data,</text><text fill="#000000" font-family="sans-serif" font-size="13" lengthAdjust="spacing" textLength="117" x="590.5" y="74.1997">provides previews,</text><text fill="#000000" font-family="sans-serif" font-size="13" lengthAdjust="spacing" textLength="74" x="590.5" y="89.3325">follows links</text><!--MD5=[b3c633cd6cd267e80b8ca5565fbac860]
entity parser--><rect fill="#FEFECE" filter="url(#f1chd5otpjlgde)" height="22.2969" style="stroke:#000000;stroke-width:1.5;" width="64" x="95.5" y="197"/><text fill="#000000" font-family="sans-serif" font-size="14" lengthAdjust="spacing" textLength="44" x="105.5" y="212.9951">Parser</text><!--MD5=[4a65e84059005d12693a083370a06717]
entity client--><rect fill="#66FFAA" filter="url(#f1chd5otpjlgde)" height="38.5938" style="stroke:#000000;stroke-width:1.5;" width="118" x="42.5" y="320"/><text fill="#000000" font-family="sans-serif" font-size="14" font-weight="bold" lengthAdjust="spacing" textLength="98" x="52.5" y="335.9951">Open-Needs</text><text fill="#000000" font-family="sans-serif" font-size="14" font-weight="bold" lengthAdjust="spacing" textLength="45" x="52.5" y="352.292">Client</text><!--MD5=[a17e17d51b6b9b9bb192798e6f7f1fd3]
entity builder--><rect fill="#FEFECE" filter="url(#f1chd5otpjlgde)" height="22.2969" style="stroke:#000000;stroke-width:1.5;" width="68" x="67.5" y="450.5"/><text fill="#000000" font-family="sans-serif" font-size="14" lengthAdjust="spacing" textLength="48" x="77.5" y="466.4951">Builder</text><!--MD5=[703ea5a149c5871c74522bf38bdfe548]
entity data--><rect fill="#CCCCCC" filter="url(#f1chd5otpjlgde)" height="120.0781" style="stroke:#000000;stroke-width:1.5;" width="95.3333" x="231" y="279.5"/><text fill="#000000" font-family="sans-serif" font-size="14" font-weight="bold" lengthAdjust="spacing" textLength="35" x="241" y="295.4951">Data</text><text fill="#000000" font-family="sans-serif" font-size="14" lengthAdjust="spacing" textLength="5" x="276" y="295.4951">:</text><path d="M246.6667,302.2604 L242,306.9271 L246.6667,311.5938 L248.4167,309.8438 L245.5,306.9271 L248.4167,304.0104 L246.6667,302.2604 " fill="#000000" style="stroke:;stroke-width:0.0;stroke-dasharray:;"/><path d="M255.0833,302.2604 L253.3333,304.0104 L256.25,306.9271 L253.3333,309.8438 L255.0833,311.5938 L259.75,306.9271 L255.0833,302.2604 " fill="#000000" style="stroke:;stroke-width:0.0;stroke-dasharray:;"/><text fill="#000000" font-family="sans-serif" font-size="14" lengthAdjust="spacing" textLength="44" x="263.6667" y="311.792">needs</text><path d="M243.75,318.5573 L242,320.3073 L244.9167,323.224 L242,326.1406 L243.75,327.8906 L248.4167,323.224 L243.75,318.5573 " fill="#000000" style="stroke:;stroke-width:0.0;stroke-dasharray:;"/><text fill="#000000" font-family="sans-serif" font-size="14" lengthAdjust="spacing" textLength="37" x="252.3333" y="328.0889">filters</text><path d="M243.75,334.8542 L242,336.6042 L244.9167,339.5208 L242,342.4375 L243.75,344.1875 L248.4167,339.5208 L243.75,334.8542 " fill="#000000" style="stroke:;stroke-width:0.0;stroke-dasharray:;"/><text fill="#000000" font-family="sans-serif" font-size="14" lengthAdjust="spacing" textLength="50" x="252.3333" y="344.3857">configs</text><path d="M243.75,351.151 L242,352.901 L244.9167,355.8177 L242,358.7344 L243.75,360.4844 L248.4167,355.8177 L243.75,351.151 " fill="#000000" style="stroke:;stroke-width:0.0;stroke-dasharray:;"/><text fill="#000000" font-family="sans-serif" font-size="14" lengthAdjust="spacing" textLength="64" x="252.3333" y="360.6826">functions</text><path d="M246.6667,367.4479 L242,372.1146 L246.6667,376.7813 L248.4167,375.0313 L245.5,372.1146 L248.4167,369.1979 L246.6667,367.4479 " fill="#000000" style="stroke:;stroke-width:0.0;stroke-dasharray:;"/><text fill="#000000" font-family="sans-serif" font-size="14" lengthAdjust="spacing" textLength="42" x="252.3333" y="376.9795">tables</text><path d="M246.6667,383.7448 L242,388.4115 L246.6667,393.0781 L248.4167,391.3281 L245.5,388.4115 L248.4167,385.4948 L246.6667,383.7448 " fill="#000000" style="stroke:;stroke-width:0.0;stroke-dasharray:;"/><text fill="#000000" font-family="sans-serif" font-size="14" lengthAdjust="spacing" textLength="50" x="252.3333" y="393.2764">images</text><!--MD5=[ac40dd4c03671801018102ca7be9c337]
entity rest--><path d="M406.256,316.9359 C410.6737,311.1878 415.6828,310.4621 420.1892,316.8339 C423.946,310.9985 428.952,310.1642 433.4781,315.9546 C436.549,310.0275 442.8749,310.0027 446.6193,315.1558 C450.9924,309.4564 455.7203,310.1262 459.3826,315.9436 C464.1808,309.3646 469.3457,309.0229 473.6929,316.4058 C477.7503,311.2948 482.9006,311.5706 486.5431,316.9158 C489.8896,309.9591 495.5414,310.8143 499.2891,316.5116 C503.8815,310.6385 509.3645,310.2968 513.7955,316.7023 C520.9996,318.7779 521.8214,324.3022 516.8806,329.3421 C522.8235,331.4805 522.8185,335.7576 519.037,339.885 C523.5164,345.5571 521.2493,349.8786 514.9824,351.9345 C520.6737,357.0317 520.1492,361.4349 512.9316,364.41 C509.8981,369.8949 504.9872,371.2971 501.0053,365.4041 C497.9173,373.6715 490.8661,372.6569 486.1856,367.1128 C482.7225,374.6117 477.8905,375.6278 472.2398,369.3229 C469.2701,375.5581 464.7122,375.7138 459.9559,371.404 C454.5312,377.6358 448.2825,377.3795 445.0105,369.1754 C440.2734,375.4294 435.2836,374.9565 431.648,368.0565 C425.4491,374.3014 421.5295,372.7231 418.4233,365.106 C413.3014,370.8899 408.9173,369.5089 405.8456,363.0071 C399.4519,362.1545 397.6737,357.9052 402.0771,352.9905 C394.5249,352.1214 391.3875,347.5543 395.9823,340.6742 C392.059,335.5382 393.9515,330.6418 400.4394,329.756 C395.6519,323.2578 397.5831,317.327 406.256,316.9359 " fill="#FEFECE" filter="url(#f1chd5otpjlgde)" style="stroke:#000000;stroke-width:1.5;"/><text fill="#000000" font-family="sans-serif" font-size="14" font-weight="bold" lengthAdjust="spacing" textLength="25" x="411.5" y="335.9951">API</text><text fill="#000000" font-family="sans-serif" font-size="14" lengthAdjust="spacing" textLength="94" x="411.5" y="352.292">(REST based)</text><!--MD5=[58b586ad9caebef2cfd75194b6a3785c]
entity func--><rect fill="#CCCCCC" filter="url(#f1chd5otpjlgde)" height="87.4844" style="stroke:#000000;stroke-width:1.5;" width="145" x="591" y="296"/><text fill="#000000" font-family="sans-serif" font-size="14" font-weight="bold" lengthAdjust="spacing" textLength="120" x="601" y="311.9951">Need functions</text><text fill="#000000" font-family="sans-serif" font-size="14" lengthAdjust="spacing" textLength="5" x="721" y="311.9951">:</text><ellipse cx="606.5" cy="324.0938" fill="#000000" rx="2.5" ry="2.5" style="stroke:#000000;stroke-width:0.0;"/><text fill="#000000" font-family="sans-serif" font-size="14" lengthAdjust="spacing" textLength="52" x="614" y="328.292">validate</text><ellipse cx="606.5" cy="340.3906" fill="#000000" rx="2.5" ry="2.5" style="stroke:#000000;stroke-width:0.0;"/><text fill="#000000" font-family="sans-serif" font-size="14" lengthAdjust="spacing" textLength="61" x="614" y="344.5889">calculate</text><ellipse cx="606.5" cy="356.6875" fill="#000000" rx="2.5" ry="2.5" style="stroke:#000000;stroke-width:0.0;"/><text fill="#000000" font-family="sans-serif" font-size="14" lengthAdjust="spacing" textLength="29" x="614" y="360.8857">filter</text><ellipse cx="606.5" cy="372.9844" fill="#000000" rx="2.5" ry="2.5" style="stroke:#000000;stroke-width:0.0;"/><text fill="#000000" font-family="sans-serif" font-size="14" lengthAdjust="spacing" textLength="68" x="614" y="377.1826">represent</text><!--MD5=[7468467f3b6b392f1d176d828c753b77]
entity db--><path d="M806.5,318.5 C806.5,308.5 858.5,308.5 858.5,308.5 C858.5,308.5 910.5,308.5 910.5,318.5 L910.5,360.0938 C910.5,370.0938 858.5,370.0938 858.5,370.0938 C858.5,370.0938 806.5,370.0938 806.5,360.0938 L806.5,318.5 " fill="#FEFECE" filter="url(#f1chd5otpjlgde)" style="stroke:#000000;stroke-width:1.5;"/><path d="M806.5,318.5 C806.5,328.5 858.5,328.5 858.5,328.5 C858.5,328.5 910.5,328.5 910.5,318.5 " fill="none" style="stroke:#000000;stroke-width:1.5;"/><text fill="#000000" font-family="sans-serif" font-size="14" font-weight="bold" lengthAdjust="spacing" textLength="73" x="816.5" y="345.4951">Database</text><text fill="#000000" font-family="sans-serif" font-size="14" lengthAdjust="spacing" textLength="84" x="816.5" y="361.792">(SQL based)</text><!--MD5=[2021705b656b270ae1616113380bc97f]
entity webapp--><rect fill="#66FFAA" filter="url(#f1chd5otpjlgde)" height="38.5938" style="stroke:#000000;stroke-width:1.5;" width="108" x="319.5" y="557"/><text fill="#000000" font-family="sans-serif" font-size="14" lengthAdjust="spacing" textLength="88" x="329.5" y="572.9951">Open-Needs</text><text fill="#000000" font-family="sans-serif" font-size="14" lengthAdjust="spacing" textLength="58" x="329.5" y="589.292">WebApp</text><path d="M498,556.5 L498,572.5 L427.68,576.5 L498,580.5 L498,596.7656 A0,0 0 0 0 498,596.7656 L629,596.7656 A0,0 0 0 0 629,596.7656 L629,566.5 L619,556.5 L498,556.5 A0,0 0 0 0 498,556.5 " fill="#FBFB77" filter="url(#f1chd5otpjlgde)" style="stroke:#A80036;stroke-width:1.0;"/><path d="M619,556.5 L619,566.5 L629,566.5 L619,556.5 " fill="#FBFB77" style="stroke:#A80036;stroke-width:1.0;"/><text fill="#000000" font-family="sans-serif" font-size="13" lengthAdjust="spacing" textLength="90" x="504" y="573.5669">Quick analysis</text><text fill="#000000" font-family="sans-serif" font-size="13" lengthAdjust="spacing" textLength="110" x="504" y="588.6997">and comparisons</text><!--MD5=[97d830d5e5b460bdf66d951ba21fb85b]
entity issue--><rect fill="#66FFAA" filter="url(#f1chd5otpjlgde)" height="22.2969" style="stroke:#000000;stroke-width:1.5;" width="93" x="699" y="565.5"/><text fill="#000000" font-family="sans-serif" font-size="14" lengthAdjust="spacing" textLength="73" x="709" y="581.4951">Issue Data</text><path d="M862.5,556.5 L862.5,572.5 L792.09,576.5 L862.5,580.5 L862.5,596.7656 A0,0 0 0 0 862.5,596.7656 L984.5,596.7656 A0,0 0 0 0 984.5,596.7656 L984.5,566.5 L974.5,556.5 L862.5,556.5 A0,0 0 0 0 862.5,556.5 " fill="#FBFB77" filter="url(#f1chd5otpjlgde)" style="stroke:#A80036;stroke-width:1.0;"/><path d="M974.5,556.5 L974.5,566.5 L984.5,566.5 L974.5,556.5 " fill="#FBFB77" style="stroke:#A80036;stroke-width:1.0;"/><text fill="#000000" font-family="sans-serif" font-size="13" lengthAdjust="spacing" textLength="101" x="868.5" y="573.5669">Safely integrate</text><text fill="#000000" font-family="sans-serif" font-size="13" lengthAdjust="spacing" textLength="85" x="868.5" y="588.6997">external data</text><!--MD5=[57a5b41ed6b3ba96fe9b4a740eb3fdc7]
entity docs--><rect fill="#66AAFF" filter="url(#f1chd5otpjlgde)" height="55.5938" style="stroke:#000000;stroke-width:1.5;" width="187" x="43" y="41.5"/><polygon fill="#66AAFF" points="213,46.5,213,60.5,225,60.5,225,52.5,219,46.5,213,46.5" style="stroke:#000000;stroke-width:1.5;"/><line style="stroke:#000000;stroke-width:1.5;" x1="219" x2="219" y1="46.5" y2="52.5"/><line style="stroke:#000000;stroke-width:1.5;" x1="225" x2="219" y1="52.5" y2="52.5"/><text fill="#000000" font-family="sans-serif" font-size="14" font-weight="bold" lengthAdjust="spacing" textLength="157" x="53" y="67.4951">Documentation files</text><text fill="#000000" font-family="sans-serif" font-size="14" lengthAdjust="spacing" textLength="78" x="53" y="83.792">(md, rst, ...)</text><!--MD5=[13975603d50ae75a37e8557c4b6b6bc4]
entity final--><rect fill="#66AAFF" filter="url(#f1chd5otpjlgde)" height="55.5938" style="stroke:#000000;stroke-width:1.5;" width="189" x="7" y="548.5"/><polygon fill="#66AAFF" points="179,553.5,179,567.5,191,567.5,191,559.5,185,553.5,179,553.5" style="stroke:#000000;stroke-width:1.5;"/><line style="stroke:#000000;stroke-width:1.5;" x1="185" x2="185" y1="553.5" y2="559.5"/><line style="stroke:#000000;stroke-width:1.5;" x1="191" x2="185" y1="559.5" y2="559.5"/><text fill="#000000" font-family="sans-serif" font-size="14" font-weight="bold" lengthAdjust="spacing" textLength="159" x="17" y="574.4951">Final documentation</text><text fill="#000000" font-family="sans-serif" font-size="14" lengthAdjust="spacing" textLength="104" x="17" y="590.792">(HTML, PDF, ...)</text><!--MD5=[9423893651f9ffed8c6a12d25756b4db]
link rest to func--><path d="M525.78,339.5 C545.8,339.5 565.81,339.5 585.83,339.5 " fill="none" id="rest-func" style="stroke:#A80036;stroke-width:2.0;"/><polygon fill="#A80036" points="590.91,339.5,581.91,335.5,585.91,339.5,581.91,343.5,590.91,339.5" style="stroke:#A80036;stroke-width:2.0;"/><polygon fill="#A80036" points="520.56,339.5,529.56,343.5,525.56,339.5,529.56,335.5,520.56,339.5" style="stroke:#A80036;stroke-width:2.0;"/><!--MD5=[c84dda3cf0f26a0188958e07d99dc029]
link func to db--><path d="M741.45,339.5 C761.43,339.5 781.4,339.5 801.37,339.5 " fill="none" id="func-db" style="stroke:#A80036;stroke-width:2.0;"/><polygon fill="#A80036" points="806.45,339.5,797.45,335.5,801.45,339.5,797.45,343.5,806.45,339.5" style="stroke:#A80036;stroke-width:2.0;"/><polygon fill="#A80036" points="736.24,339.5,745.24,343.5,741.24,339.5,745.24,335.5,736.24,339.5" style="stroke:#A80036;stroke-width:2.0;"/><!--MD5=[8a88756516e7fe7819ec5fe741c6c6fd]
reverse link docs to ext--><path d="M235.5,69.5 C289.11,69.5 353.46,69.5 398.86,69.5 " fill="none" id="docs-backto-ext" style="stroke:#333333;stroke-width:1.0;stroke-dasharray:7.0,7.0;"/><polygon fill="#333333" points="230.35,69.5,239.35,73.5,235.35,69.5,239.35,65.5,230.35,69.5" style="stroke:#333333;stroke-width:1.0;"/><text fill="#000000" font-family="sans-serif" font-size="13" lengthAdjust="spacing" textLength="56" x="284.5" y="47.5669">supports</text><text fill="#000000" font-family="sans-serif" font-size="13" lengthAdjust="spacing" textLength="85" x="272" y="62.6997">during writing</text><!--MD5=[5d49cc2c6d9fcbbfd867f59da20250e1]
link docs to parser--><path d="M134.7,97.79 C132.84,126.03 130,169.1 128.5,191.79 " fill="none" id="docs-to-parser" style="stroke:#A80036;stroke-width:2.0;"/><polygon fill="#A80036" points="128.17,196.84,132.7515,188.1217,128.4979,191.8508,124.7688,187.5971,128.17,196.84" style="stroke:#A80036;stroke-width:2.0;"/><!--MD5=[d4f45298a4e8c6662ed4d8e995fcc7cd]
link parser to client--><path d="M125.46,219.16 C121.36,239.59 112.01,286.13 106.28,314.68 " fill="none" id="parser-to-client" style="stroke:#A80036;stroke-width:2.0;"/><polygon fill="#A80036" points="105.26,319.79,110.9519,311.7524,106.2433,314.8876,103.1081,310.1791,105.26,319.79" style="stroke:#A80036;stroke-width:2.0;"/><!--MD5=[5955e8b1024adf64256b1298c21c4dcc]
link client to data--><path d="M165.81,339.5 C185.72,339.5 205.63,339.5 225.55,339.5 " fill="none" id="client-data" style="stroke:#A80036;stroke-width:2.0;"/><polygon fill="#A80036" points="230.61,339.5,221.61,335.5,225.61,339.5,221.61,343.5,230.61,339.5" style="stroke:#A80036;stroke-width:2.0;"/><polygon fill="#A80036" points="160.62,339.5,169.62,343.5,165.62,339.5,169.62,335.5,160.62,339.5" style="stroke:#A80036;stroke-width:2.0;"/><!--MD5=[5bbe23825fc74f6e2e89a868b3a97522]
link data to rest--><path d="M330.95,376.67 C358.29,388.07 385.63,387.02 412.96,373.52 " fill="none" id="data-rest" style="stroke:#A80036;stroke-width:2.0;"/><polygon fill="#A80036" points="417.71,371.05,407.8801,371.6603,413.2756,373.3599,411.5759,378.7554,417.71,371.05" style="stroke:#A80036;stroke-width:2.0;"/><polygon fill="#A80036" points="326.31,374.61,332.9331,381.8994,330.8855,376.6261,336.1588,374.5785,326.31,374.61" style="stroke:#A80036;stroke-width:2.0;"/><!--MD5=[2efa9be2b1ed1ccff827bd9405ec2154]
link client to builder--><path d="M101.5,359.25 C101.5,382.95 101.5,423.29 101.5,445.22 " fill="none" id="client-to-builder" style="stroke:#A80036;stroke-width:2.0;"/><polygon fill="#A80036" points="101.5,450.37,105.5,441.37,101.5,445.37,97.5,441.37,101.5,450.37" style="stroke:#A80036;stroke-width:2.0;"/><!--MD5=[798ee4f45b071aeabdf2ab74d84e38eb]
link builder to final--><path d="M101.5,472.53 C101.5,488.2 101.5,519.16 101.5,543.06 " fill="none" id="builder-to-final" style="stroke:#A80036;stroke-width:2.0;"/><polygon fill="#A80036" points="101.5,548.35,105.5,539.35,101.5,543.35,97.5,539.35,101.5,548.35" style="stroke:#A80036;stroke-width:2.0;"/><!--MD5=[5189d66f6e8268730e943ae08a507d22]
reverse link ext to rest--><path d="M456.68,94.42 C457.04,143.11 457.87,253.73 458.27,307.71 " fill="none" id="ext-backto-rest" style="stroke:#333333;stroke-width:1.0;stroke-dasharray:7.0,7.0;"/><polygon fill="#333333" points="456.64,89.35,452.7173,98.384,456.6829,94.3498,460.717,98.3154,456.64,89.35" style="stroke:#333333;stroke-width:1.0;"/><!--MD5=[5019cd87cbbf0ace309aff07ecc612be]
link rest to webapp--><path d="M447.39,371.22 C430.14,418.9 397.32,509.65 381.9,552.28 " fill="none" id="rest-to-webapp" style="stroke:#333333;stroke-width:1.0;stroke-dasharray:7.0,7.0;"/><polygon fill="#333333" points="380.19,556.99,387.0127,549.8872,381.8907,552.2881,379.4897,547.1661,380.19,556.99" style="stroke:#333333;stroke-width:1.0;"/><!--MD5=[444ca39aaba84f22dd020ca6892340b9]
link rest to issue--><path d="M496.02,371.22 C559.17,422.93 684.17,525.29 729.01,562 " fill="none" id="rest-to-issue" style="stroke:#333333;stroke-width:1.0;stroke-dasharray:7.0,7.0;"/><polygon fill="#333333" points="733.1,565.34,728.6726,556.5424,729.2321,562.1715,723.603,562.731,733.1,565.34" style="stroke:#333333;stroke-width:1.0;"/><!--MD5=[52f08c7eb971c39444aa714af5b0a982]
@startuml
skinparam nodesep 70
skinparam ranksep 50

    card IDE as ide {
        card "Open-Needs\nIDE extension" as ext #6fa
        note right: verifies data,\nprovides previews,\nfollows links
    }

    artifact "**Documentation files**\n(md, rst, ...)" as docs #6af
    card "**Documentation Framework**\n(MkDocs, AsciiDoc, Sphinx, ...)" as df #6af {
        card "Parser" as parser
        card "**Open-Needs**\n**Client**" as client #6fa
        card "Builder" as builder
        card "**Data**:\n<&chevron-left><&chevron-right>needs\n<&chevron-right>filters\n<&chevron-right>configs\n<&chevron-right>functions\n<&chevron-left>tables\n<&chevron-left>images" as data #ccc
    }

    card "**Open-Needs Server**" as on #6fa {
        cloud "**API**\n(REST based)" as rest
        card "**Need functions**:\n*validate\n*calculate\n*filter\n*represent" as func #ccc
        database "**Database**\n(SQL based)" as db

        rest <=> func
        func <=> db
    }

    artifact "**Final documentation**\n(HTML, PDF, ...)" as final #6af

    card "Web browser" {
        card "Open-Needs\nWebApp" as webapp #6fa
        note right: Quick analysis\nand comparisons
    }

    card "Service X" as service {
        card "Issue Data" as issue #6fa
        note right: Safely integrate\nexternal data
    }

    ext .[#333]l.> docs: supports \nduring writing
    docs ==> parser
    parser ==> client
    client <=> data
    data <=> rest

    client ==> builder
    builder ==> final

    rest .[#333]u..> ext

    rest .[#333]d..> webapp
    rest .[#333]d..> issue


@enduml

PlantUML version 1.2022.0(Tue Jan 11 16:16:42 UTC 2022)
(GPL source distribution)
Java Runtime: OpenJDK Runtime Environment
JVM: OpenJDK 64-Bit Server VM
Default Encoding: UTF-8
Language: en
Country: null
--></g></svg>