<?xml version="1.0" encoding="UTF-8" standalone="no"?><svg xmlns="http://www.w3.org/2000/svg" xmlns:xlink="http://www.w3.org/1999/xlink" contentScriptType="application/ecmascript" contentStyleType="text/css" height="615px" preserveAspectRatio="none" style="width:862px;height:615px;background:#FFFFFF;" version="1.1" viewBox="0 0 862 615" width="862px" zoomAndPan="magnify"><defs><filter height="300%" id="f226dqtvropuc" width="300%" x="-1" y="-1"><feGaussianBlur result="blurOut" stdDeviation="2.0"/><feColorMatrix in="blurOut" result="blurOut2" type="matrix" values="0 0 0 0 0 0 0 0 0 0 0 0 0 0 0 0 0 0 .4 0"/><feOffset dx="4.0" dy="4.0" in="blurOut2" result="blurOut3"/><feBlend in="SourceGraphic" in2="blurOut3" mode="normal"/></filter></defs><g><!--MD5=[51a32c4ec503d26995ff86900fd263c9]
cluster ide--><rect fill="#FFFFFF" filter="url(#f226dqtvropuc)" height="106" style="stroke:#000000;stroke-width:1.5;" width="356" x="334.5" y="7"/><line style="stroke:#000000;stroke-width:1.5;" x1="334.5" x2="690.5" y1="27.2969" y2="27.2969"/><text fill="#000000" font-family="sans-serif" font-size="14" font-weight="bold" lengthAdjust="spacing" textLength="24" x="500.5" y="21.9951">IDE</text><!--MD5=[a7ba5e77c394f141bf9549b7afd8e9b5]
cluster df--><rect fill="#66AAFF" filter="url(#f226dqtvropuc)" height="333" style="stroke:#000000;stroke-width:1.5;" width="254" x="19.5" y="146"/><line style="stroke:#000000;stroke-width:1.5;" x1="19.5" x2="273.5" y1="182.5938" y2="182.5938"/><text fill="#000000" font-family="sans-serif" font-size="14" font-weight="bold" lengthAdjust="spacing" textLength="213" x="40" y="160.9951">Documentation Framework</text><text fill="#000000" font-family="sans-serif" font-size="14" font-weight="bold" lengthAdjust="spacing" textLength="238" x="27.5" y="177.292">(MkDocs, AsciiDoc, Sphinx, ...)</text><!--MD5=[2ce6bf2f725ec3fddfdb3be23c2410e4]
cluster on--><rect fill="#66FFAA" filter="url(#f226dqtvropuc)" height="138" style="stroke:#000000;stroke-width:1.5;" width="546" x="304.5" y="261"/><line style="stroke:#000000;stroke-width:1.5;" x1="304.5" x2="850.5" y1="281.2969" y2="281.2969"/><text fill="#000000" font-family="sans-serif" font-size="14" font-weight="bold" lengthAdjust="spacing" textLength="156" x="499.5" y="275.9951">Open-Needs Server</text><!--MD5=[e8c6c8f2634c0caf258b19e7417658db]
cluster Web browser--><rect fill="#FFFFFF" filter="url(#f226dqtvropuc)" height="91" style="stroke:#000000;stroke-width:1.5;" width="342" x="323.5" y="512"/><line style="stroke:#000000;stroke-width:1.5;" x1="323.5" x2="665.5" y1="532.2969" y2="532.2969"/><text fill="#000000" font-family="sans-serif" font-size="14" font-weight="bold" lengthAdjust="spacing" textLength="107" x="441" y="526.9951">Web browser</text><!--MD5=[7c6cc8532223f11e77b82be6cbdb2ea3]
entity ext--><rect fill="#66FFAA" filter="url(#f226dqtvropuc)" height="38.5938" style="stroke:#000000;stroke-width:1.5;" width="115" x="351" y="50"/><text fill="#000000" font-family="sans-serif" font-size="14" lengthAdjust="spacing" textLength="88" x="361" y="65.9951">Open-Needs</text><text fill="#000000" font-family="sans-serif" font-size="14" lengthAdjust="spacing" textLength="95" x="361" y="82.292">IDE extension</text><path d="M536.5,42 L536.5,65.5 L466.21,69.5 L536.5,73.5 L536.5,97.3984 A0,0 0 0 0 536.5,97.3984 L674.5,97.3984 A0,0 0 0 0 674.5,97.3984 L674.5,52 L664.5,42 L536.5,42 A0,0 0 0 0 536.5,42 " fill="#FBFB77" filter="url(#f226dqtvropuc)" style="stroke:#A80036;stroke-width:1.0;"/><path d="M664.5,42 L664.5,52 L674.5,52 L664.5,42 " fill="#FBFB77" style="stroke:#A80036;stroke-width:1.0;"/><text fill="#000000" font-family="sans-serif" font-size="13" lengthAdjust="spacing" textLength="82" x="542.5" y="59.0669">verifies data,</text><text fill="#000000" font-family="sans-serif" font-size="13" lengthAdjust="spacing" textLength="117" x="542.5" y="74.1997">provides previews,</text><text fill="#000000" font-family="sans-serif" font-size="13" lengthAdjust="spacing" textLength="74" x="542.5" y="89.3325">follows links</text><!--MD5=[b3c633cd6cd267e80b8ca5565fbac860]
entity parser--><rect fill="#FEFECE" filter="url(#f226dqtvropuc)" height="22.2969" style="stroke:#000000;stroke-width:1.5;" width="64" x="144.5" y="197"/><text fill="#000000" font-family="sans-serif" font-size="14" lengthAdjust="spacing" textLength="44" x="154.5" y="212.9951">Parser</text><!--MD5=[4a65e84059005d12693a083370a06717]
entity client--><rect fill="#66FFAA" filter="url(#f226dqtvropuc)" height="38.5938" style="stroke:#000000;stroke-width:1.5;" width="118" x="131.5" y="320"/><text fill="#000000" font-family="sans-serif" font-size="14" font-weight="bold" lengthAdjust="spacing" textLength="98" x="141.5" y="335.9951">Open-Needs</text><text fill="#000000" font-family="sans-serif" font-size="14" font-weight="bold" lengthAdjust="spacing" textLength="45" x="141.5" y="352.292">Client</text><!--MD5=[a17e17d51b6b9b9bb192798e6f7f1fd3]
entity builder--><rect fill="#FEFECE" filter="url(#f226dqtvropuc)" height="22.2969" style="stroke:#000000;stroke-width:1.5;" width="68" x="143.5" y="441"/><text fill="#000000" font-family="sans-serif" font-size="14" lengthAdjust="spacing" textLength="48" x="153.5" y="456.9951">Builder</text><!--MD5=[ac40dd4c03671801018102ca7be9c337]
entity rest--><path d="M330.256,316.9359 C334.6737,311.1878 339.6828,310.4621 344.1892,316.8339 C347.946,310.9985 352.952,310.1642 357.4781,315.9546 C360.549,310.0275 366.8749,310.0027 370.6193,315.1558 C374.9924,309.4564 379.7203,310.1262 383.3826,315.9436 C388.1808,309.3646 393.3457,309.0229 397.6929,316.4058 C401.7503,311.2948 406.9006,311.5706 410.5431,316.9158 C413.8896,309.9591 419.5414,310.8143 423.2891,316.5116 C427.8815,310.6385 433.3645,310.2968 437.7955,316.7023 C444.9996,318.7779 445.8214,324.3022 440.8806,329.3421 C446.8235,331.4805 446.8185,335.7576 443.037,339.885 C447.5164,345.5571 445.2493,349.8786 438.9824,351.9345 C444.6737,357.0317 444.1492,361.4349 436.9316,364.41 C433.8981,369.8949 428.9872,371.2971 425.0053,365.4041 C421.9173,373.6715 414.8661,372.6569 410.1856,367.1128 C406.7225,374.6117 401.8905,375.6278 396.2398,369.3229 C393.2701,375.5581 388.7122,375.7138 383.9559,371.404 C378.5312,377.6358 372.2825,377.3795 369.0105,369.1754 C364.2734,375.4294 359.2836,374.9565 355.648,368.0565 C349.4491,374.3014 345.5295,372.7231 342.4233,365.106 C337.3014,370.8899 332.9173,369.5089 329.8456,363.0071 C323.4519,362.1545 321.6737,357.9052 326.0771,352.9905 C318.5249,352.1214 315.3875,347.5543 319.9823,340.6742 C316.059,335.5382 317.9515,330.6418 324.4394,329.756 C319.6519,323.2578 321.5831,317.327 330.256,316.9359 " fill="#FEFECE" filter="url(#f226dqtvropuc)" style="stroke:#000000;stroke-width:1.5;"/><text fill="#000000" font-family="sans-serif" font-size="14" font-weight="bold" lengthAdjust="spacing" textLength="25" x="335.5" y="335.9951">API</text><text fill="#000000" font-family="sans-serif" font-size="14" lengthAdjust="spacing" textLength="94" x="335.5" y="352.292">(REST based)</text><!--MD5=[58b586ad9caebef2cfd75194b6a3785c]
entity func--><rect fill="#FEFECE" filter="url(#f226dqtvropuc)" height="87.4844" style="stroke:#000000;stroke-width:1.5;" width="145" x="515" y="296"/><text fill="#000000" font-family="sans-serif" font-size="14" font-weight="bold" lengthAdjust="spacing" textLength="120" x="525" y="311.9951">Need functions</text><text fill="#000000" font-family="sans-serif" font-size="14" lengthAdjust="spacing" textLength="5" x="645" y="311.9951">:</text><ellipse cx="530.5" cy="324.0938" fill="#000000" rx="2.5" ry="2.5" style="stroke:#000000;stroke-width:0.0;"/><text fill="#000000" font-family="sans-serif" font-size="14" lengthAdjust="spacing" textLength="52" x="538" y="328.292">validate</text><ellipse cx="530.5" cy="340.3906" fill="#000000" rx="2.5" ry="2.5" style="stroke:#000000;stroke-width:0.0;"/><text fill="#000000" font-family="sans-serif" font-size="14" lengthAdjust="spacing" textLength="61" x="538" y="344.5889">calculate</text><ellipse cx="530.5" cy="356.6875" fill="#000000" rx="2.5" ry="2.5" style="stroke:#000000;stroke-width:0.0;"/><text fill="#000000" font-family="sans-serif" font-size="14" lengthAdjust="spacing" textLength="29" x="538" y="360.8857">filter</text><ellipse cx="530.5" cy="372.9844" fill="#000000" rx="2.5" ry="2.5" style="stroke:#000000;stroke-width:0.0;"/><text fill="#000000" font-family="sans-serif" font-size="14" lengthAdjust="spacing" textLength="68" x="538" y="377.1826">represent</text><!--MD5=[7468467f3b6b392f1d176d828c753b77]
entity db--><path d="M730.5,318.5 C730.5,308.5 782.5,308.5 782.5,308.5 C782.5,308.5 834.5,308.5 834.5,318.5 L834.5,360.0938 C834.5,370.0938 782.5,370.0938 782.5,370.0938 C782.5,370.0938 730.5,370.0938 730.5,360.0938 L730.5,318.5 " fill="#FEFECE" filter="url(#f226dqtvropuc)" style="stroke:#000000;stroke-width:1.5;"/><path d="M730.5,318.5 C730.5,328.5 782.5,328.5 782.5,328.5 C782.5,328.5 834.5,328.5 834.5,318.5 " fill="none" style="stroke:#000000;stroke-width:1.5;"/><text fill="#000000" font-family="sans-serif" font-size="14" font-weight="bold" lengthAdjust="spacing" textLength="73" x="740.5" y="345.4951">Database</text><text fill="#000000" font-family="sans-serif" font-size="14" lengthAdjust="spacing" textLength="84" x="740.5" y="361.792">(SQL based)</text><!--MD5=[2021705b656b270ae1616113380bc97f]
entity webapp--><rect fill="#66FFAA" filter="url(#f226dqtvropuc)" height="38.5938" style="stroke:#000000;stroke-width:1.5;" width="108" x="339.5" y="547.5"/><text fill="#000000" font-family="sans-serif" font-size="14" lengthAdjust="spacing" textLength="88" x="349.5" y="563.4951">Open-Needs</text><text fill="#000000" font-family="sans-serif" font-size="14" lengthAdjust="spacing" textLength="58" x="349.5" y="579.792">WebApp</text><path d="M518,547 L518,563 L447.68,567 L518,571 L518,587.2656 A0,0 0 0 0 518,587.2656 L649,587.2656 A0,0 0 0 0 649,587.2656 L649,557 L639,547 L518,547 A0,0 0 0 0 518,547 " fill="#FBFB77" filter="url(#f226dqtvropuc)" style="stroke:#A80036;stroke-width:1.0;"/><path d="M639,547 L639,557 L649,557 L639,547 " fill="#FBFB77" style="stroke:#A80036;stroke-width:1.0;"/><text fill="#000000" font-family="sans-serif" font-size="13" lengthAdjust="spacing" textLength="90" x="524" y="564.0669">Quick analysis</text><text fill="#000000" font-family="sans-serif" font-size="13" lengthAdjust="spacing" textLength="110" x="524" y="579.1997">and comparisons</text><!--MD5=[57a5b41ed6b3ba96fe9b4a740eb3fdc7]
entity docs--><rect fill="#66AAFF" filter="url(#f226dqtvropuc)" height="55.5938" style="stroke:#000000;stroke-width:1.5;" width="187" x="7" y="41.5"/><polygon fill="#66AAFF" points="177,46.5,177,60.5,189,60.5,189,52.5,183,46.5,177,46.5" style="stroke:#000000;stroke-width:1.5;"/><line style="stroke:#000000;stroke-width:1.5;" x1="183" x2="183" y1="46.5" y2="52.5"/><line style="stroke:#000000;stroke-width:1.5;" x1="189" x2="183" y1="52.5" y2="52.5"/><text fill="#000000" font-family="sans-serif" font-size="14" font-weight="bold" lengthAdjust="spacing" textLength="157" x="17" y="67.4951">Documentation files</text><text fill="#000000" font-family="sans-serif" font-size="14" lengthAdjust="spacing" textLength="78" x="17" y="83.792">(md, rst, ...)</text><!--MD5=[13975603d50ae75a37e8557c4b6b6bc4]
entity final--><rect fill="#66AAFF" filter="url(#f226dqtvropuc)" height="55.5938" style="stroke:#000000;stroke-width:1.5;" width="189" x="80" y="539"/><polygon fill="#66AAFF" points="252,544,252,558,264,558,264,550,258,544,252,544" style="stroke:#000000;stroke-width:1.5;"/><line style="stroke:#000000;stroke-width:1.5;" x1="258" x2="258" y1="544" y2="550"/><line style="stroke:#000000;stroke-width:1.5;" x1="264" x2="258" y1="550" y2="550"/><text fill="#000000" font-family="sans-serif" font-size="14" font-weight="bold" lengthAdjust="spacing" textLength="159" x="90" y="564.9951">Final documentation</text><text fill="#000000" font-family="sans-serif" font-size="14" lengthAdjust="spacing" textLength="104" x="90" y="581.292">(HTML, PDF, ...)</text><!--MD5=[9423893651f9ffed8c6a12d25756b4db]
link rest to func--><path d="M449.78,339.5 C469.8,339.5 489.81,339.5 509.83,339.5 " fill="none" id="rest-func" style="stroke:#A80036;stroke-width:2.0;"/><polygon fill="#A80036" points="514.91,339.5,505.91,335.5,509.91,339.5,505.91,343.5,514.91,339.5" style="stroke:#A80036;stroke-width:2.0;"/><polygon fill="#A80036" points="444.56,339.5,453.56,343.5,449.56,339.5,453.56,335.5,444.56,339.5" style="stroke:#A80036;stroke-width:2.0;"/><!--MD5=[c84dda3cf0f26a0188958e07d99dc029]
link func to db--><path d="M665.45,339.5 C685.43,339.5 705.4,339.5 725.37,339.5 " fill="none" id="func-db" style="stroke:#A80036;stroke-width:2.0;"/><polygon fill="#A80036" points="730.45,339.5,721.45,335.5,725.45,339.5,721.45,343.5,730.45,339.5" style="stroke:#A80036;stroke-width:2.0;"/><polygon fill="#A80036" points="660.24,339.5,669.24,343.5,665.24,339.5,669.24,335.5,660.24,339.5" style="stroke:#A80036;stroke-width:2.0;"/><!--MD5=[8a88756516e7fe7819ec5fe741c6c6fd]
reverse link docs to ext--><path d="M199.28,69.5 C249.2,69.5 308.04,69.5 350.59,69.5 " fill="none" id="docs-backto-ext" style="stroke:#333333;stroke-width:1.0;stroke-dasharray:7.0,7.0;"/><polygon fill="#333333" points="194.16,69.5,203.16,73.5,199.16,69.5,203.16,65.5,194.16,69.5" style="stroke:#333333;stroke-width:1.0;"/><text fill="#000000" font-family="sans-serif" font-size="13" lengthAdjust="spacing" textLength="56" x="242.5" y="47.5669">supports</text><text fill="#000000" font-family="sans-serif" font-size="13" lengthAdjust="spacing" textLength="85" x="230" y="62.6997">during writing</text><!--MD5=[5d49cc2c6d9fcbbfd867f59da20250e1]
link docs to parser--><path d="M115.7,97.79 C131.55,126.27 155.81,169.83 168.35,192.37 " fill="none" id="docs-to-parser" style="stroke:#A80036;stroke-width:2.0;"/><polygon fill="#A80036" points="170.84,196.84,169.9658,187.03,168.4118,192.4692,162.9726,190.9152,170.84,196.84" style="stroke:#A80036;stroke-width:2.0;"/><!--MD5=[d4f45298a4e8c6662ed4d8e995fcc7cd]
link parser to client--><path d="M177.6,219.16 C179.81,239.59 184.84,286.13 187.92,314.68 " fill="none" id="parser-to-client" style="stroke:#A80036;stroke-width:2.0;"/><polygon fill="#A80036" points="188.48,319.79,191.4794,310.409,187.9372,314.8195,183.5267,311.2774,188.48,319.79" style="stroke:#A80036;stroke-width:2.0;"/><!--MD5=[26e2a6d16be86e10afd6e55fcb00a95c]
link client to rest--><path d="M249.75,351.98 C271.51,354.52 293.28,354.8 315.04,352.83 " fill="none" id="client-to-rest" style="stroke:#A80036;stroke-width:2.0;"/><polygon fill="#A80036" points="320.27,352.31,310.9237,349.2041,315.2937,352.7962,311.7016,357.1662,320.27,352.31" style="stroke:#A80036;stroke-width:2.0;"/><!--MD5=[77873bdc72966eb815bc077d01e2602b]
link rest to client--><path d="M320.27,326.69 C298.51,324.35 276.75,324.27 254.98,326.45 " fill="none" id="rest-to-client" style="stroke:#A80036;stroke-width:2.0;"/><polygon fill="#A80036" points="249.75,327.02,259.131,330.0194,254.7205,326.4772,258.2626,322.0667,249.75,327.02" style="stroke:#A80036;stroke-width:2.0;"/><!--MD5=[2efa9be2b1ed1ccff827bd9405ec2154]
link client to builder--><path d="M188.29,359.24 C185.77,380.74 181.67,415.59 179.31,435.59 " fill="none" id="client-to-builder" style="stroke:#A80036;stroke-width:2.0;"/><polygon fill="#A80036" points="178.7,440.81,183.7284,432.3415,179.2867,435.8445,175.7837,431.4028,178.7,440.81" style="stroke:#A80036;stroke-width:2.0;"/><!--MD5=[798ee4f45b071aeabdf2ab74d84e38eb]
link builder to final--><path d="M177.1,468.21 C176.65,484.93 175.93,512.27 175.35,533.8 " fill="none" id="builder-final" style="stroke:#A80036;stroke-width:2.0;"/><polygon fill="#A80036" points="175.22,538.85,179.45,529.9558,175.3485,533.8517,171.4527,529.7502,175.22,538.85" style="stroke:#A80036;stroke-width:2.0;"/><polygon fill="#A80036" points="177.23,463.03,173,471.9242,177.1015,468.0283,180.9973,472.1298,177.23,463.03" style="stroke:#A80036;stroke-width:2.0;"/><!--MD5=[5189d66f6e8268730e943ae08a507d22]
reverse link ext to rest--><path d="M406.18,94.42 C401.46,143.11 390.72,253.73 385.49,307.71 " fill="none" id="ext-backto-rest" style="stroke:#333333;stroke-width:1.0;stroke-dasharray:7.0,7.0;"/><polygon fill="#333333" points="406.67,89.35,401.8138,97.9184,406.1838,94.3263,409.7759,98.6963,406.67,89.35" style="stroke:#333333;stroke-width:1.0;"/><!--MD5=[5019cd87cbbf0ace309aff07ecc612be]
link rest to webapp--><path d="M384.01,371.38 C386.23,416.96 390.34,501.26 392.34,542.3 " fill="none" id="rest-to-webapp" style="stroke:#333333;stroke-width:1.0;stroke-dasharray:7.0,7.0;"/><polygon fill="#333333" points="392.59,547.33,396.1474,538.146,392.3467,542.3359,388.1569,538.5353,392.59,547.33" style="stroke:#333333;stroke-width:1.0;"/><!--MD5=[9d8c8c7443befaa731efde5938285d8f]
@startuml
skinparam nodesep 70
skinparam ranksep 50

    card IDE as ide {
        card "Open-Needs\nIDE extension" as ext #6fa
        note right: verifies data,\nprovides previews,\nfollows links
    }

    artifact "**Documentation files**\n(md, rst, ...)" as docs #6af
    card "**Documentation Framework**\n(MkDocs, AsciiDoc, Sphinx, ...)" as df #6af {
        card "Parser" as parser
        card "**Open-Needs**\n**Client**" as client #6fa
        card "Builder" as builder
    }

    card "**Open-Needs Server**" as on #6fa {
        cloud "**API**\n(REST based)" as rest
        card "**Need functions**:\n*validate\n*calculate\n*filter\n*represent" as func
        database "**Database**\n(SQL based)" as db

        rest <=> func
        func <=> db
    }

    artifact "**Final documentation**\n(HTML, PDF, ...)" as final #6af

    card "Web browser" {
        card "Open-Needs\nWebApp" as webapp #6fa
        note right: Quick analysis\nand comparisons
    }

    ext .[#333]l.> docs: supports \nduring writing
    docs ==> parser
    parser ==> client
    client => rest

    rest => client
    client ==> builder

    builder <==> final

    rest .[#333]u..> ext

    rest .[#333]d..> webapp


@enduml

PlantUML version 1.2022.0(Tue Jan 11 16:16:42 UTC 2022)
(GPL source distribution)
Java Runtime: OpenJDK Runtime Environment
JVM: OpenJDK 64-Bit Server VM
Default Encoding: UTF-8
Language: en
Country: null
--></g></svg>