<?xml version="1.0" encoding="UTF-8" standalone="no"?><svg xmlns="http://www.w3.org/2000/svg" xmlns:xlink="http://www.w3.org/1999/xlink" contentScriptType="application/ecmascript" contentStyleType="text/css" height="120px" preserveAspectRatio="none" style="width:148px;height:120px;background:#FFFFFF;" version="1.1" viewBox="0 0 148 120" width="148px" zoomAndPan="magnify"><defs><filter height="300%" id="f7ql5e4awbrz2" width="300%" x="-1" y="-1"><feGaussianBlur result="blurOut" stdDeviation="2.0"/><feColorMatrix in="blurOut" result="blurOut2" type="matrix" values="0 0 0 0 0 0 0 0 0 0 0 0 0 0 0 0 0 0 .4 0"/><feOffset dx="4.0" dy="4.0" in="blurOut2" result="blurOut3"/><feBlend in="SourceGraphic" in2="blurOut3" mode="normal"/></filter></defs><g><!--MD5=[091077a2f88d0d20898678e26ee3479b]
class Organizations--><rect codeLine="1" fill="#FEFECE" filter="url(#f7ql5e4awbrz2)" height="99.2188" id="Organizations" style="stroke:#A80036;stroke-width:1.5;" width="127" x="7" y="7"/><ellipse cx="26.5" cy="23" fill="#ADD1B2" rx="11" ry="11" style="stroke:#A80036;stroke-width:1.0;"/><path d="M29.4688,28.6406 Q28.8906,28.9375 28.25,29.0781 Q27.6094,29.2344 26.9063,29.2344 Q24.4063,29.2344 23.0781,27.5938 Q21.7656,25.9375 21.7656,22.8125 Q21.7656,19.6875 23.0781,18.0313 Q24.4063,16.375 26.9063,16.375 Q27.6094,16.375 28.25,16.5313 Q28.9063,16.6875 29.4688,16.9844 L29.4688,19.7031 Q28.8438,19.125 28.25,18.8594 Q27.6563,18.5781 27.0313,18.5781 Q25.6875,18.5781 25,19.6563 Q24.3125,20.7188 24.3125,22.8125 Q24.3125,24.9063 25,25.9844 Q25.6875,27.0469 27.0313,27.0469 Q27.6563,27.0469 28.25,26.7813 Q28.8438,26.5 29.4688,25.9219 L29.4688,28.6406 Z " fill="#000000"/><text fill="#000000" font-family="sans-serif" font-size="12" lengthAdjust="spacing" textLength="85" x="41.5" y="27.1543">Organizations</text><line style="stroke:#A80036;stroke-width:1.5;" x1="8" x2="133" y1="39" y2="39"/><rect fill="none" height="6" style="stroke:#C82930;stroke-width:1.0;" width="6" x="15" y="47"/><text fill="#000000" font-family="sans-serif" font-size="11" lengthAdjust="spacing" textLength="74" x="27" y="53.2104">id: unique int</text><ellipse cx="18" cy="62.8047" rx="3" ry="3" style="stroke:#038048;stroke-width:1.0;fill:none;"/><text fill="#000000" font-family="sans-serif" font-size="11" lengthAdjust="spacing" textLength="101" x="27" y="66.0151">org_id: unique str</text><ellipse cx="18" cy="75.6094" rx="3" ry="3" style="stroke:#038048;stroke-width:1.0;fill:none;"/><text fill="#000000" font-family="sans-serif" font-size="11" lengthAdjust="spacing" textLength="56" x="27" y="78.8198">name: str</text><ellipse cx="18" cy="88.4141" rx="3" ry="3" style="stroke:#038048;stroke-width:1.0;fill:none;"/><text fill="#000000" font-family="sans-serif" font-size="11" lengthAdjust="spacing" textLength="87" x="27" y="91.6245">description: str</text><line style="stroke:#A80036;stroke-width:1.5;" x1="8" x2="133" y1="98.2188" y2="98.2188"/><!--MD5=[e8eef28713d1e539bf0b1c3266ea9fe9]
@startuml
    class Organizations {
        - id: unique int
        + org_id: unique str
        + name: str
        + description: str
    }
@enduml

PlantUML version 1.2022.0(Tue Jan 11 16:16:42 UTC 2022)
(GPL source distribution)
Java Runtime: OpenJDK Runtime Environment
JVM: OpenJDK 64-Bit Server VM
Default Encoding: UTF-8
Language: en
Country: null
--></g></svg>