<?xml version="1.0" encoding="UTF-8" standalone="no"?><svg xmlns="http://www.w3.org/2000/svg" xmlns:xlink="http://www.w3.org/1999/xlink" contentScriptType="application/ecmascript" contentStyleType="text/css" height="459px" preserveAspectRatio="none" style="width:1789px;height:459px;background:#FFFFFF;" version="1.1" viewBox="0 0 1789 459" width="1789px" zoomAndPan="magnify"><defs/><g><rect fill="#FFFFFF" height="121.7813" rx="5" ry="5" style="stroke:#FFFFFF;stroke-width:1.5;" width="430" x="10" y="178.8039"/><text fill="#000000" font-family="sans-serif" font-size="14" font-weight="bold" lengthAdjust="spacing" textLength="71" x="15" y="193.7991">$schema</text><text fill="#000000" font-family="sans-serif" font-size="14" lengthAdjust="spacing" textLength="327" x="108" y="193.7991">https://json-schema.org/draft/2020-12/schema</text><line style="stroke:#000000;stroke-width:1.0;" x1="103" x2="103" y1="178.8039" y2="199.1008"/><line style="stroke:#000000;stroke-width:1.0;" x1="10" x2="440" y1="199.1008" y2="199.1008"/><text fill="#000000" font-family="sans-serif" font-size="14" font-weight="bold" lengthAdjust="spacing" textLength="24" x="15" y="214.0959">$id</text><text fill="#000000" font-family="sans-serif" font-size="14" lengthAdjust="spacing" textLength="308" x="108" y="214.0959">https://open-needs.org/project.schema.json</text><line style="stroke:#000000;stroke-width:1.0;" x1="103" x2="103" y1="199.1008" y2="219.3977"/><line style="stroke:#000000;stroke-width:1.0;" x1="10" x2="440" y1="219.3977" y2="219.3977"/><text fill="#000000" font-family="sans-serif" font-size="14" font-weight="bold" lengthAdjust="spacing" textLength="30" x="15" y="234.3928">title</text><text fill="#000000" font-family="sans-serif" font-size="14" lengthAdjust="spacing" textLength="199" x="108" y="234.3928">Open-Needs Project schema</text><line style="stroke:#000000;stroke-width:1.0;" x1="103" x2="103" y1="219.3977" y2="239.6946"/><line style="stroke:#000000;stroke-width:1.0;" x1="10" x2="440" y1="239.6946" y2="239.6946"/><text fill="#000000" font-family="sans-serif" font-size="14" font-weight="bold" lengthAdjust="spacing" textLength="35" x="15" y="254.6897">type</text><text fill="#000000" font-family="sans-serif" font-size="14" lengthAdjust="spacing" textLength="43" x="108" y="254.6897">object</text><line style="stroke:#000000;stroke-width:1.0;" x1="103" x2="103" y1="239.6946" y2="259.9914"/><line style="stroke:#000000;stroke-width:1.0;" x1="10" x2="440" y1="259.9914" y2="259.9914"/><text fill="#000000" font-family="sans-serif" font-size="14" font-weight="bold" lengthAdjust="spacing" textLength="83" x="15" y="274.9866">properties</text><text fill="#000000" font-family="sans-serif" font-size="14" lengthAdjust="spacing" textLength="0" x="120" y="274.9866"/><line style="stroke:#000000;stroke-width:1.0;" x1="103" x2="103" y1="259.9914" y2="280.2883"/><line style="stroke:#000000;stroke-width:1.0;" x1="10" x2="440" y1="280.2883" y2="280.2883"/><text fill="#000000" font-family="sans-serif" font-size="14" font-weight="bold" lengthAdjust="spacing" textLength="68" x="15" y="295.2834">required</text><text fill="#000000" font-family="sans-serif" font-size="14" lengthAdjust="spacing" textLength="0" x="120" y="295.2834"/><line style="stroke:#000000;stroke-width:1.0;" x1="103" x2="103" y1="280.2883" y2="300.5852"/><rect fill="none" height="121.7813" rx="5" ry="5" style="stroke:#000000;stroke-width:1.5;" width="430" x="10" y="178.8039"/><rect fill="#FFFFFF" height="142.0781" rx="5" ry="5" style="stroke:#FFFFFF;stroke-width:1.5;" width="137" x="477" y="139.8039"/><text fill="#000000" font-family="sans-serif" font-size="14" font-weight="bold" lengthAdjust="spacing" textLength="28" x="482" y="154.7991">key</text><text fill="#000000" font-family="sans-serif" font-size="14" lengthAdjust="spacing" textLength="0" x="609" y="154.7991"/><line style="stroke:#000000;stroke-width:1.0;" x1="592" x2="592" y1="139.8039" y2="160.1008"/><line style="stroke:#000000;stroke-width:1.0;" x1="477" x2="614" y1="160.1008" y2="160.1008"/><text fill="#000000" font-family="sans-serif" font-size="14" font-weight="bold" lengthAdjust="spacing" textLength="30" x="482" y="175.0959">title</text><text fill="#000000" font-family="sans-serif" font-size="14" lengthAdjust="spacing" textLength="0" x="609" y="175.0959"/><line style="stroke:#000000;stroke-width:1.0;" x1="592" x2="592" y1="160.1008" y2="180.3977"/><line style="stroke:#000000;stroke-width:1.0;" x1="477" x2="614" y1="180.3977" y2="180.3977"/><text fill="#000000" font-family="sans-serif" font-size="14" font-weight="bold" lengthAdjust="spacing" textLength="89" x="482" y="195.3928">description</text><text fill="#000000" font-family="sans-serif" font-size="14" lengthAdjust="spacing" textLength="0" x="609" y="195.3928"/><line style="stroke:#000000;stroke-width:1.0;" x1="592" x2="592" y1="180.3977" y2="200.6946"/><line style="stroke:#000000;stroke-width:1.0;" x1="477" x2="614" y1="200.6946" y2="200.6946"/><text fill="#000000" font-family="sans-serif" font-size="14" font-weight="bold" lengthAdjust="spacing" textLength="21" x="482" y="215.6897">url</text><text fill="#000000" font-family="sans-serif" font-size="14" lengthAdjust="spacing" textLength="0" x="609" y="215.6897"/><line style="stroke:#000000;stroke-width:1.0;" x1="592" x2="592" y1="200.6946" y2="220.9914"/><line style="stroke:#000000;stroke-width:1.0;" x1="477" x2="614" y1="220.9914" y2="220.9914"/><text fill="#000000" font-family="sans-serif" font-size="14" font-weight="bold" lengthAdjust="spacing" textLength="105" x="482" y="235.9866">configuration</text><text fill="#000000" font-family="sans-serif" font-size="14" lengthAdjust="spacing" textLength="0" x="609" y="235.9866"/><line style="stroke:#000000;stroke-width:1.0;" x1="592" x2="592" y1="220.9914" y2="241.2883"/><line style="stroke:#000000;stroke-width:1.0;" x1="477" x2="614" y1="241.2883" y2="241.2883"/><text fill="#000000" font-family="sans-serif" font-size="14" font-weight="bold" lengthAdjust="spacing" textLength="66" x="482" y="256.2834">domains</text><text fill="#000000" font-family="sans-serif" font-size="14" lengthAdjust="spacing" textLength="0" x="609" y="256.2834"/><line style="stroke:#000000;stroke-width:1.0;" x1="592" x2="592" y1="241.2883" y2="261.5852"/><line style="stroke:#000000;stroke-width:1.0;" x1="477" x2="614" y1="261.5852" y2="261.5852"/><text fill="#000000" font-family="sans-serif" font-size="14" font-weight="bold" lengthAdjust="spacing" textLength="49" x="482" y="276.5803">needs</text><text fill="#000000" font-family="sans-serif" font-size="14" lengthAdjust="spacing" textLength="0" x="609" y="276.5803"/><line style="stroke:#000000;stroke-width:1.0;" x1="592" x2="592" y1="261.5852" y2="281.8821"/><rect fill="none" height="142.0781" rx="5" ry="5" style="stroke:#000000;stroke-width:1.5;" width="137" x="477" y="139.8039"/><rect fill="#FFFFFF" height="40.5938" rx="5" ry="5" style="stroke:#FFFFFF;stroke-width:1.5;" width="526" x="750.5" y="12.3039"/><text fill="#000000" font-family="sans-serif" font-size="14" font-weight="bold" lengthAdjust="spacing" textLength="89" x="755.5" y="27.2991">description</text><text fill="#000000" font-family="sans-serif" font-size="14" lengthAdjust="spacing" textLength="417" x="854.5" y="27.2991">An unique string as key, which represents the project in urls.</text><line style="stroke:#000000;stroke-width:1.0;" x1="849.5" x2="849.5" y1="12.3039" y2="32.6008"/><line style="stroke:#000000;stroke-width:1.0;" x1="750.5" x2="1276.5" y1="32.6008" y2="32.6008"/><text fill="#000000" font-family="sans-serif" font-size="14" font-weight="bold" lengthAdjust="spacing" textLength="35" x="755.5" y="47.5959">type</text><text fill="#000000" font-family="sans-serif" font-size="14" lengthAdjust="spacing" textLength="39" x="854.5" y="47.5959">string</text><line style="stroke:#000000;stroke-width:1.0;" x1="849.5" x2="849.5" y1="32.6008" y2="52.8977"/><rect fill="none" height="40.5938" rx="5" ry="5" style="stroke:#000000;stroke-width:1.5;" width="526" x="750.5" y="12.3039"/><rect fill="#FFFFFF" height="40.5938" rx="5" ry="5" style="stroke:#FFFFFF;stroke-width:1.5;" width="725" x="651" y="71.3039"/><text fill="#000000" font-family="sans-serif" font-size="14" font-weight="bold" lengthAdjust="spacing" textLength="89" x="656" y="86.2991">description</text><text fill="#000000" font-family="sans-serif" font-size="14" lengthAdjust="spacing" textLength="616" x="755" y="86.2991">A title for the project, which is used as textual representation in documents and websites.</text><line style="stroke:#000000;stroke-width:1.0;" x1="750" x2="750" y1="71.3039" y2="91.6008"/><line style="stroke:#000000;stroke-width:1.0;" x1="651" x2="1376" y1="91.6008" y2="91.6008"/><text fill="#000000" font-family="sans-serif" font-size="14" font-weight="bold" lengthAdjust="spacing" textLength="35" x="656" y="106.5959">type</text><text fill="#000000" font-family="sans-serif" font-size="14" lengthAdjust="spacing" textLength="39" x="755" y="106.5959">string</text><line style="stroke:#000000;stroke-width:1.0;" x1="750" x2="750" y1="91.6008" y2="111.8977"/><rect fill="none" height="40.5938" rx="5" ry="5" style="stroke:#000000;stroke-width:1.5;" width="725" x="651" y="71.3039"/><rect fill="#FFFFFF" height="40.5938" rx="5" ry="5" style="stroke:#FFFFFF;stroke-width:1.5;" width="349" x="839" y="130.3039"/><text fill="#000000" font-family="sans-serif" font-size="14" font-weight="bold" lengthAdjust="spacing" textLength="89" x="844" y="145.2991">description</text><text fill="#000000" font-family="sans-serif" font-size="14" lengthAdjust="spacing" textLength="240" x="943" y="145.2991">A textual description of the project.</text><line style="stroke:#000000;stroke-width:1.0;" x1="938" x2="938" y1="130.3039" y2="150.6008"/><line style="stroke:#000000;stroke-width:1.0;" x1="839" x2="1188" y1="150.6008" y2="150.6008"/><text fill="#000000" font-family="sans-serif" font-size="14" font-weight="bold" lengthAdjust="spacing" textLength="35" x="844" y="165.5959">type</text><text fill="#000000" font-family="sans-serif" font-size="14" lengthAdjust="spacing" textLength="39" x="943" y="165.5959">string</text><line style="stroke:#000000;stroke-width:1.0;" x1="938" x2="938" y1="150.6008" y2="170.8977"/><rect fill="none" height="40.5938" rx="5" ry="5" style="stroke:#000000;stroke-width:1.5;" width="349" x="839" y="130.3039"/><rect fill="#FFFFFF" height="40.5938" rx="5" ry="5" style="stroke:#FFFFFF;stroke-width:1.5;" width="346" x="840.5" y="189.3039"/><text fill="#000000" font-family="sans-serif" font-size="14" font-weight="bold" lengthAdjust="spacing" textLength="89" x="845.5" y="204.2991">description</text><text fill="#000000" font-family="sans-serif" font-size="14" lengthAdjust="spacing" textLength="237" x="944.5" y="204.2991">An url to a webpage of the project.</text><line style="stroke:#000000;stroke-width:1.0;" x1="939.5" x2="939.5" y1="189.3039" y2="209.6008"/><line style="stroke:#000000;stroke-width:1.0;" x1="840.5" x2="1186.5" y1="209.6008" y2="209.6008"/><text fill="#000000" font-family="sans-serif" font-size="14" font-weight="bold" lengthAdjust="spacing" textLength="35" x="845.5" y="224.5959">type</text><text fill="#000000" font-family="sans-serif" font-size="14" lengthAdjust="spacing" textLength="39" x="944.5" y="224.5959">string</text><line style="stroke:#000000;stroke-width:1.0;" x1="939.5" x2="939.5" y1="209.6008" y2="229.8977"/><rect fill="none" height="40.5938" rx="5" ry="5" style="stroke:#000000;stroke-width:1.5;" width="346" x="840.5" y="189.3039"/><rect fill="#FFFFFF" height="40.5938" rx="5" ry="5" style="stroke:#FFFFFF;stroke-width:1.5;" width="507" x="760" y="248.3039"/><text fill="#000000" font-family="sans-serif" font-size="14" font-weight="bold" lengthAdjust="spacing" textLength="89" x="765" y="263.2991">description</text><text fill="#000000" font-family="sans-serif" font-size="14" lengthAdjust="spacing" textLength="398" x="864" y="263.2991">A project specific configuration, based on domain.schema</text><line style="stroke:#000000;stroke-width:1.0;" x1="859" x2="859" y1="248.3039" y2="268.6008"/><line style="stroke:#000000;stroke-width:1.0;" x1="760" x2="1267" y1="268.6008" y2="268.6008"/><text fill="#000000" font-family="sans-serif" font-size="14" font-weight="bold" lengthAdjust="spacing" textLength="33" x="765" y="283.5959">$ref</text><text fill="#000000" font-family="sans-serif" font-size="14" lengthAdjust="spacing" textLength="311" x="864" y="283.5959">https://open-needs.org/domain.schema.json</text><line style="stroke:#000000;stroke-width:1.0;" x1="859" x2="859" y1="268.6008" y2="288.8977"/><rect fill="none" height="40.5938" rx="5" ry="5" style="stroke:#000000;stroke-width:1.5;" width="507" x="760" y="248.3039"/><rect fill="#FFFFFF" height="60.8906" rx="5" ry="5" style="stroke:#FFFFFF;stroke-width:1.5;" width="381" x="823" y="307.3039"/><text fill="#000000" font-family="sans-serif" font-size="14" font-weight="bold" lengthAdjust="spacing" textLength="89" x="828" y="322.2991">description</text><text fill="#000000" font-family="sans-serif" font-size="14" lengthAdjust="spacing" textLength="272" x="927" y="322.2991">A list of domains configuring the project</text><line style="stroke:#000000;stroke-width:1.0;" x1="922" x2="922" y1="307.3039" y2="327.6008"/><line style="stroke:#000000;stroke-width:1.0;" x1="823" x2="1204" y1="327.6008" y2="327.6008"/><text fill="#000000" font-family="sans-serif" font-size="14" font-weight="bold" lengthAdjust="spacing" textLength="35" x="828" y="342.5959">type</text><text fill="#000000" font-family="sans-serif" font-size="14" lengthAdjust="spacing" textLength="33" x="927" y="342.5959">array</text><line style="stroke:#000000;stroke-width:1.0;" x1="922" x2="922" y1="327.6008" y2="347.8977"/><line style="stroke:#000000;stroke-width:1.0;" x1="823" x2="1204" y1="347.8977" y2="347.8977"/><text fill="#000000" font-family="sans-serif" font-size="14" font-weight="bold" lengthAdjust="spacing" textLength="43" x="828" y="362.8928">items</text><text fill="#000000" font-family="sans-serif" font-size="14" lengthAdjust="spacing" textLength="0" x="939" y="362.8928"/><line style="stroke:#000000;stroke-width:1.0;" x1="922" x2="922" y1="347.8977" y2="368.1946"/><rect fill="none" height="60.8906" rx="5" ry="5" style="stroke:#000000;stroke-width:1.5;" width="381" x="823" y="307.3039"/><rect fill="#FFFFFF" height="20.2969" rx="5" ry="5" style="stroke:#FFFFFF;stroke-width:1.5;" width="364" x="1413" y="347.8039"/><text fill="#000000" font-family="sans-serif" font-size="14" font-weight="bold" lengthAdjust="spacing" textLength="33" x="1418" y="362.7991">$ref</text><text fill="#000000" font-family="sans-serif" font-size="14" lengthAdjust="spacing" textLength="311" x="1461" y="362.7991">https://open-needs.org/domain.schema.json</text><line style="stroke:#000000;stroke-width:1.0;" x1="1456" x2="1456" y1="347.8039" y2="368.1008"/><rect fill="none" height="20.2969" rx="5" ry="5" style="stroke:#000000;stroke-width:1.5;" width="364" x="1413" y="347.8039"/><rect fill="#FFFFFF" height="60.8906" rx="5" ry="5" style="stroke:#FFFFFF;stroke-width:1.5;" width="376" x="825.5" y="386.3039"/><text fill="#000000" font-family="sans-serif" font-size="14" font-weight="bold" lengthAdjust="spacing" textLength="89" x="830.5" y="401.2991">description</text><text fill="#000000" font-family="sans-serif" font-size="14" lengthAdjust="spacing" textLength="267" x="929.5" y="401.2991">A list of needs belonging to the project</text><line style="stroke:#000000;stroke-width:1.0;" x1="924.5" x2="924.5" y1="386.3039" y2="406.6008"/><line style="stroke:#000000;stroke-width:1.0;" x1="825.5" x2="1201.5" y1="406.6008" y2="406.6008"/><text fill="#000000" font-family="sans-serif" font-size="14" font-weight="bold" lengthAdjust="spacing" textLength="35" x="830.5" y="421.5959">type</text><text fill="#000000" font-family="sans-serif" font-size="14" lengthAdjust="spacing" textLength="33" x="929.5" y="421.5959">array</text><line style="stroke:#000000;stroke-width:1.0;" x1="924.5" x2="924.5" y1="406.6008" y2="426.8977"/><line style="stroke:#000000;stroke-width:1.0;" x1="825.5" x2="1201.5" y1="426.8977" y2="426.8977"/><text fill="#000000" font-family="sans-serif" font-size="14" font-weight="bold" lengthAdjust="spacing" textLength="43" x="830.5" y="441.8928">items</text><text fill="#000000" font-family="sans-serif" font-size="14" lengthAdjust="spacing" textLength="0" x="941.5" y="441.8928"/><line style="stroke:#000000;stroke-width:1.0;" x1="924.5" x2="924.5" y1="426.8977" y2="447.1946"/><rect fill="none" height="60.8906" rx="5" ry="5" style="stroke:#000000;stroke-width:1.5;" width="376" x="825.5" y="386.3039"/><rect fill="#FFFFFF" height="20.2969" rx="5" ry="5" style="stroke:#FFFFFF;stroke-width:1.5;" width="349" x="1420.5" y="426.8039"/><text fill="#000000" font-family="sans-serif" font-size="14" font-weight="bold" lengthAdjust="spacing" textLength="33" x="1425.5" y="441.7991">$ref</text><text fill="#000000" font-family="sans-serif" font-size="14" lengthAdjust="spacing" textLength="296" x="1468.5" y="441.7991">https://open-needs.org/need.schema.json</text><line style="stroke:#000000;stroke-width:1.0;" x1="1463.5" x2="1463.5" y1="426.8039" y2="447.1008"/><rect fill="none" height="20.2969" rx="5" ry="5" style="stroke:#000000;stroke-width:1.5;" width="349" x="1420.5" y="426.8039"/><rect fill="#FFFFFF" height="101.4844" rx="5" ry="5" style="stroke:#FFFFFF;stroke-width:1.5;" width="100" x="495.5" y="300.3039"/><text fill="#000000" font-family="sans-serif" font-size="14" lengthAdjust="spacing" textLength="24" x="500.5" y="315.2991">key</text><line style="stroke:#000000;stroke-width:1.0;" x1="495.5" x2="595.5" y1="320.6008" y2="320.6008"/><text fill="#000000" font-family="sans-serif" font-size="14" lengthAdjust="spacing" textLength="25" x="500.5" y="335.5959">title</text><line style="stroke:#000000;stroke-width:1.0;" x1="495.5" x2="595.5" y1="340.8977" y2="340.8977"/><text fill="#000000" font-family="sans-serif" font-size="14" lengthAdjust="spacing" textLength="90" x="500.5" y="355.8928">configuration</text><line style="stroke:#000000;stroke-width:1.0;" x1="495.5" x2="595.5" y1="361.1946" y2="361.1946"/><text fill="#000000" font-family="sans-serif" font-size="14" lengthAdjust="spacing" textLength="59" x="500.5" y="376.1897">domains</text><line style="stroke:#000000;stroke-width:1.0;" x1="495.5" x2="595.5" y1="381.4914" y2="381.4914"/><text fill="#000000" font-family="sans-serif" font-size="14" lengthAdjust="spacing" textLength="44" x="500.5" y="396.4866">needs</text><rect fill="none" height="101.4844" rx="5" ry="5" style="stroke:#000000;stroke-width:1.5;" width="100" x="495.5" y="300.3039"/><path d="M602,149.8039 L615,149.8039 C657.2573,149.8039 616.8851,86.7409 651,61.8039 C716.8184,13.6928 808.5058,6.7858 883.1358,11.7325 " fill="none" style="stroke:#000000;stroke-width:1.0;stroke-dasharray:3.0,3.0;"/><path d="M882.9157,14.7833 L885.4239,11.8976 L883.356,8.6816 L890.7629,12.2829 L882.9157,14.7833 " fill="#000000" style="stroke:#000000;stroke-width:1.0;"/><ellipse cx="602" cy="149.8039" fill="#000000" rx="3" ry="3" style="stroke:#000000;stroke-width:1.0;"/><path d="M602,169.8039 L615,169.8039 C642.0235,169.8039 627.3963,133.962 651,120.8039 C654.188,119.0267 657.417,117.3151 660.6834,115.6669 " fill="none" style="stroke:#000000;stroke-width:1.0;stroke-dasharray:3.0,3.0;"/><path d="M662.0012,118.3694 L662.7103,114.6786 L659.3656,112.9645 L667.4396,112.3724 L662.0012,118.3694 " fill="#000000" style="stroke:#000000;stroke-width:1.0;"/><ellipse cx="602" cy="169.8039" fill="#000000" rx="3" ry="3" style="stroke:#000000;stroke-width:1.0;"/><path d="M602,189.8039 L615,189.8039 C631.4924,189.8039 634.7284,183.4938 651,180.8039 C709.3539,171.1573 773.5388,164.5523 831.4497,160.0551 " fill="none" style="stroke:#000000;stroke-width:1.0;stroke-dasharray:3.0,3.0;"/><path d="M831.6869,163.1596 L833.7781,159.8772 L831.2125,156.9506 L839.2109,159.462 L831.6869,163.1596 " fill="#000000" style="stroke:#000000;stroke-width:1.0;"/><ellipse cx="602" cy="189.8039" fill="#000000" rx="3" ry="3" style="stroke:#000000;stroke-width:1.0;"/><path d="M602,209.8039 L615,209.8039 C686.1904,209.8039 764.5436,209.8039 832.7632,209.8039 " fill="none" style="stroke:#000000;stroke-width:1.0;stroke-dasharray:3.0,3.0;"/><path d="M832.7632,212.9405 L835.1156,209.8039 L832.7632,206.6674 L840.6045,209.8039 L832.7632,212.9405 " fill="#000000" style="stroke:#000000;stroke-width:1.0;"/><ellipse cx="602" cy="209.8039" fill="#000000" rx="3" ry="3" style="stroke:#000000;stroke-width:1.0;"/><path d="M602,230.8039 L615,230.8039 C631.4924,230.8039 634.7247,237.1364 651,239.8039 C683.6817,245.1606 718.1923,249.5399 752.4053,253.1176 " fill="none" style="stroke:#000000;stroke-width:1.0;stroke-dasharray:3.0,3.0;"/><path d="M752.0861,256.2202 L754.7323,253.357 L752.7246,250.0149 L760.1619,253.9156 L752.0861,256.2202 " fill="#000000" style="stroke:#000000;stroke-width:1.0;"/><ellipse cx="602" cy="230.8039" fill="#000000" rx="3" ry="3" style="stroke:#000000;stroke-width:1.0;"/><path d="M1193,357.8039 L1206,357.8039 C1270.9753,357.8039 1342.0632,357.8039 1405.4624,357.8039 " fill="none" style="stroke:#000000;stroke-width:1.0;stroke-dasharray:3.0,3.0;"/><path d="M1405.4624,360.881 L1407.7702,357.8039 L1405.4624,354.7269 L1413.155,357.8039 L1405.4624,360.881 " fill="#000000" style="stroke:#000000;stroke-width:1.0;"/><ellipse cx="1193" cy="357.8039" fill="#000000" rx="3" ry="3" style="stroke:#000000;stroke-width:1.0;"/><path d="M602,250.8039 L615,250.8039 C641.6667,250.8039 627.8226,285.6161 651,298.8039 C700.2931,326.8513 759.4997,340.0294 815.6161,345.3156 " fill="none" style="stroke:#000000;stroke-width:1.0;stroke-dasharray:3.0,3.0;"/><path d="M815.3501,348.3311 L817.8777,345.5151 L815.882,342.3001 L823.1547,345.9805 L815.3501,348.3311 " fill="#000000" style="stroke:#000000;stroke-width:1.0;"/><ellipse cx="602" cy="250.8039" fill="#000000" rx="3" ry="3" style="stroke:#000000;stroke-width:1.0;"/><path d="M1190,436.8039 L1203,436.8039 C1271.5552,436.8039 1346.863,436.8039 1412.9604,436.8039 " fill="none" style="stroke:#000000;stroke-width:1.0;stroke-dasharray:3.0,3.0;"/><path d="M1412.9604,439.844 L1415.2404,436.8039 L1412.9604,433.7639 L1420.5605,436.8039 L1412.9604,439.844 " fill="#000000" style="stroke:#000000;stroke-width:1.0;"/><ellipse cx="1190" cy="436.8039" fill="#000000" rx="3" ry="3" style="stroke:#000000;stroke-width:1.0;"/><path d="M602,271.8039 L615,271.8039 C664.754,271.8039 612.1679,346.6989 651,377.8039 C697.6018,415.1326 759.0991,430.2238 818.1545,434.4057 " fill="none" style="stroke:#000000;stroke-width:1.0;stroke-dasharray:3.0,3.0;"/><path d="M817.9635,437.4307 L820.4233,434.5489 L818.3456,431.3806 L825.7172,434.8832 L817.9635,437.4307 " fill="#000000" style="stroke:#000000;stroke-width:1.0;"/><ellipse cx="602" cy="271.8039" fill="#000000" rx="3" ry="3" style="stroke:#000000;stroke-width:1.0;"/><path d="M428,269.8039 L441,269.8039 C450.9252,269.8039 460.7708,267.7459 470.2202,264.3986 " fill="none" style="stroke:#000000;stroke-width:1.0;stroke-dasharray:3.0,3.0;"/><path d="M471.3396,267.256 L472.3633,263.5591 L469.1009,261.5411 L477.3638,261.6002 L471.3396,267.256 " fill="#000000" style="stroke:#000000;stroke-width:1.0;"/><ellipse cx="428" cy="269.8039" fill="#000000" rx="3" ry="3" style="stroke:#000000;stroke-width:1.0;"/><path d="M428,290.8039 L441,290.8039 C457.8111,290.8039 474.3516,296.7587 489.1237,304.9163 " fill="none" style="stroke:#000000;stroke-width:1.0;stroke-dasharray:3.0,3.0;"/><path d="M487.5678,307.5792 L491.1209,306.0832 L490.6795,302.2534 L495.781,308.8059 L487.5678,307.5792 " fill="#000000" style="stroke:#000000;stroke-width:1.0;"/><ellipse cx="428" cy="290.8039" fill="#000000" rx="3" ry="3" style="stroke:#000000;stroke-width:1.0;"/><!--MD5=[ab14df3d69a6a5d0d56436e6e024a9e7]
@startjson
!include models/project.schema.json
@endjson

@startjson
{
  "$schema": "https://json-schema.org/draft/2020-12/schema",
  "$id": "https://open-needs.org/project.schema.json",
  "title": "Open-Needs Project schema",
  "type": "object",
  "properties": {
    "key": {
      "description": "An unique string as key, which represents the project in urls.",
      "type": "string"
    },
    "title": {
      "description": "A title for the project, which is used as textual representation in documents and websites.",
      "type":  "string"
    },
    "description": {
      "description": "A textual description of the project.",
      "type":  "string"
    },
    "url": {
      "description": "An url to a webpage of the project.",
      "type":  "string"
    },
    "configuration": {
      "description": "A project specific configuration, based on domain.schema",
      "$ref": "https://open-needs.org/domain.schema.json"
    },
    "domains": {
      "description": "A list of domains configuring the project",
      "type": "array",
      "items": {
         "$ref": "https://open-needs.org/domain.schema.json"
      }
    },
    "needs": {
      "description": "A list of needs belonging to the project",
      "type": "array",
      "items": {
         "$ref": "https://open-needs.org/need.schema.json"
      }
    }
  },
  "required": ["key", "title", "configuration", "domains", "needs"]
}
@endjson

PlantUML version 1.2022.0(Tue Jan 11 16:16:42 UTC 2022)
(GPL source distribution)
Java Runtime: OpenJDK Runtime Environment
JVM: OpenJDK 64-Bit Server VM
Default Encoding: UTF-8
Language: en
Country: null
--></g></svg>