<?xml version="1.0" encoding="UTF-8" standalone="no"?><svg xmlns="http://www.w3.org/2000/svg" xmlns:xlink="http://www.w3.org/1999/xlink" contentScriptType="application/ecmascript" contentStyleType="text/css" height="541px" preserveAspectRatio="none" style="width:976px;height:541px;background:#FFFFFF;" version="1.1" viewBox="0 0 976 541" width="976px" zoomAndPan="magnify"><defs><filter height="300%" id="fgd4m9pu1y1q0" width="300%" x="-1" y="-1"><feGaussianBlur result="blurOut" stdDeviation="2.0"/><feColorMatrix in="blurOut" result="blurOut2" type="matrix" values="0 0 0 0 0 0 0 0 0 0 0 0 0 0 0 0 0 0 .4 0"/><feOffset dx="4.0" dy="4.0" in="blurOut2" result="blurOut3"/><feBlend in="SourceGraphic" in2="blurOut3" mode="normal"/></filter></defs><g><!--MD5=[a7ba5e77c394f141bf9549b7afd8e9b5]
cluster df--><rect fill="#66AAFF" filter="url(#fgd4m9pu1y1q0)" height="358.5" style="stroke:#000000;stroke-width:1.5;" width="957" x="7" y="79"/><line style="stroke:#000000;stroke-width:1.5;" x1="7" x2="964" y1="115.5938" y2="115.5938"/><text fill="#000000" font-family="sans-serif" font-size="14" font-weight="bold" lengthAdjust="spacing" textLength="213" x="379" y="93.9951">Documentation Framework</text><text fill="#000000" font-family="sans-serif" font-size="14" font-weight="bold" lengthAdjust="spacing" textLength="238" x="366.5" y="110.292">(MkDocs, AsciiDoc, Sphinx, ...)</text><!--MD5=[aa2f05b2676d7d34ffa7e771fb7634f3]
cluster client--><rect fill="#66FFAA" filter="url(#fgd4m9pu1y1q0)" height="205" style="stroke:#000000;stroke-width:1.5;" width="909" x="31" y="168"/><line style="stroke:#000000;stroke-width:1.5;" x1="31" x2="940" y1="188.2969" y2="188.2969"/><text fill="#000000" font-family="sans-serif" font-size="14" font-weight="bold" lengthAdjust="spacing" textLength="148" x="411.5" y="182.9951">Open-Needs Client</text><!--MD5=[2ce6bf2f725ec3fddfdb3be23c2410e4]
cluster on--><rect fill="#66FFAA" filter="url(#fgd4m9pu1y1q0)" height="138" style="stroke:#000000;stroke-width:1.5;" width="534" x="382" y="211"/><line style="stroke:#000000;stroke-width:1.5;" x1="382" x2="916" y1="231.2969" y2="231.2969"/><text fill="#000000" font-family="sans-serif" font-size="14" font-weight="bold" lengthAdjust="spacing" textLength="156" x="571" y="225.9951">Open-Needs Server</text><!--MD5=[b3c633cd6cd267e80b8ca5565fbac860]
entity parser--><rect fill="#FEFECE" filter="url(#fgd4m9pu1y1q0)" height="22.2969" style="stroke:#000000;stroke-width:1.5;" width="64" x="73" y="130"/><text fill="#000000" font-family="sans-serif" font-size="14" lengthAdjust="spacing" textLength="44" x="83" y="145.9951">Parser</text><!--MD5=[a17e17d51b6b9b9bb192798e6f7f1fd3]
entity builder--><rect fill="#FEFECE" filter="url(#fgd4m9pu1y1q0)" height="22.2969" style="stroke:#000000;stroke-width:1.5;" width="68" x="71" y="399.5"/><text fill="#000000" font-family="sans-serif" font-size="14" lengthAdjust="spacing" textLength="48" x="81" y="415.4951">Builder</text><!--MD5=[ea4128e1b5db6200a10193b8015cde63]
entity interface--><rect fill="#FEFECE" filter="url(#fgd4m9pu1y1q0)" height="38.5938" style="stroke:#000000;stroke-width:1.5;" width="115" x="47.5" y="270"/><text fill="#000000" font-family="sans-serif" font-size="14" lengthAdjust="spacing" textLength="95" x="57.5" y="285.9951">Client specific</text><text fill="#000000" font-family="sans-serif" font-size="14" lengthAdjust="spacing" textLength="60" x="57.5" y="302.292">interface</text><!--MD5=[703ea5a149c5871c74522bf38bdfe548]
entity data--><rect fill="#CCCCCC" filter="url(#fgd4m9pu1y1q0)" height="120.0781" style="stroke:#000000;stroke-width:1.5;" width="95.3333" x="232.5" y="229.5"/><text fill="#000000" font-family="sans-serif" font-size="14" font-weight="bold" lengthAdjust="spacing" textLength="35" x="242.5" y="245.4951">Data</text><text fill="#000000" font-family="sans-serif" font-size="14" lengthAdjust="spacing" textLength="5" x="277.5" y="245.4951">:</text><path d="M248.1667,252.2604 L243.5,256.9271 L248.1667,261.5938 L249.9167,259.8438 L247,256.9271 L249.9167,254.0104 L248.1667,252.2604 " fill="#000000" style="stroke:;stroke-width:0.0;stroke-dasharray:;"/><path d="M256.5833,252.2604 L254.8333,254.0104 L257.75,256.9271 L254.8333,259.8438 L256.5833,261.5938 L261.25,256.9271 L256.5833,252.2604 " fill="#000000" style="stroke:;stroke-width:0.0;stroke-dasharray:;"/><text fill="#000000" font-family="sans-serif" font-size="14" lengthAdjust="spacing" textLength="44" x="265.1667" y="261.792">needs</text><path d="M245.25,268.5573 L243.5,270.3073 L246.4167,273.224 L243.5,276.1406 L245.25,277.8906 L249.9167,273.224 L245.25,268.5573 " fill="#000000" style="stroke:;stroke-width:0.0;stroke-dasharray:;"/><text fill="#000000" font-family="sans-serif" font-size="14" lengthAdjust="spacing" textLength="37" x="253.8333" y="278.0889">filters</text><path d="M245.25,284.8542 L243.5,286.6042 L246.4167,289.5208 L243.5,292.4375 L245.25,294.1875 L249.9167,289.5208 L245.25,284.8542 " fill="#000000" style="stroke:;stroke-width:0.0;stroke-dasharray:;"/><text fill="#000000" font-family="sans-serif" font-size="14" lengthAdjust="spacing" textLength="50" x="253.8333" y="294.3857">configs</text><path d="M245.25,301.151 L243.5,302.901 L246.4167,305.8177 L243.5,308.7344 L245.25,310.4844 L249.9167,305.8177 L245.25,301.151 " fill="#000000" style="stroke:;stroke-width:0.0;stroke-dasharray:;"/><text fill="#000000" font-family="sans-serif" font-size="14" lengthAdjust="spacing" textLength="64" x="253.8333" y="310.6826">functions</text><path d="M248.1667,317.4479 L243.5,322.1146 L248.1667,326.7813 L249.9167,325.0313 L247,322.1146 L249.9167,319.1979 L248.1667,317.4479 " fill="#000000" style="stroke:;stroke-width:0.0;stroke-dasharray:;"/><text fill="#000000" font-family="sans-serif" font-size="14" lengthAdjust="spacing" textLength="42" x="253.8333" y="326.9795">tables</text><path d="M248.1667,333.7448 L243.5,338.4115 L248.1667,343.0781 L249.9167,341.3281 L247,338.4115 L249.9167,335.4948 L248.1667,333.7448 " fill="#000000" style="stroke:;stroke-width:0.0;stroke-dasharray:;"/><text fill="#000000" font-family="sans-serif" font-size="14" lengthAdjust="spacing" textLength="50" x="253.8333" y="343.2764">images</text><!--MD5=[ac40dd4c03671801018102ca7be9c337]
entity rest--><path d="M407.756,266.9359 C412.1737,261.1878 417.1828,260.4621 421.6892,266.8339 C425.446,260.9985 430.452,260.1642 434.9781,265.9546 C438.049,260.0275 444.3749,260.0027 448.1193,265.1558 C452.4924,259.4564 457.2203,260.1262 460.8826,265.9436 C465.6808,259.3646 470.8457,259.0229 475.1929,266.4058 C479.2503,261.2948 484.4006,261.5706 488.0431,266.9158 C491.3896,259.9591 497.0414,260.8143 500.7891,266.5116 C505.3815,260.6385 510.8645,260.2968 515.2955,266.7023 C522.4996,268.7779 523.3214,274.3022 518.3806,279.3421 C524.3235,281.4805 524.3185,285.7576 520.537,289.885 C525.0164,295.5571 522.7493,299.8786 516.4824,301.9345 C522.1737,307.0317 521.6492,311.4349 514.4316,314.41 C511.3981,319.8949 506.4872,321.2971 502.5053,315.4041 C499.4173,323.6715 492.3661,322.6569 487.6856,317.1128 C484.2225,324.6117 479.3905,325.6278 473.7398,319.3229 C470.7701,325.5581 466.2122,325.7138 461.4559,321.404 C456.0312,327.6358 449.7825,327.3795 446.5105,319.1754 C441.7734,325.4294 436.7836,324.9565 433.148,318.0565 C426.9491,324.3014 423.0295,322.7231 419.9233,315.106 C414.8014,320.8899 410.4173,319.5089 407.3456,313.0071 C400.9519,312.1545 399.1737,307.9052 403.5771,302.9905 C396.0249,302.1214 392.8875,297.5543 397.4823,290.6742 C393.559,285.5382 395.4515,280.6418 401.9394,279.756 C397.1519,273.2578 399.0831,267.327 407.756,266.9359 " fill="#FEFECE" filter="url(#fgd4m9pu1y1q0)" style="stroke:#000000;stroke-width:1.5;"/><text fill="#000000" font-family="sans-serif" font-size="14" font-weight="bold" lengthAdjust="spacing" textLength="25" x="413" y="285.9951">API</text><text fill="#000000" font-family="sans-serif" font-size="14" lengthAdjust="spacing" textLength="94" x="413" y="302.292">(REST based)</text><!--MD5=[58b586ad9caebef2cfd75194b6a3785c]
entity func--><rect fill="#CCCCCC" filter="url(#fgd4m9pu1y1q0)" height="87.4844" style="stroke:#000000;stroke-width:1.5;" width="145" x="592.5" y="246"/><text fill="#000000" font-family="sans-serif" font-size="14" font-weight="bold" lengthAdjust="spacing" textLength="120" x="602.5" y="261.9951">Need functions</text><text fill="#000000" font-family="sans-serif" font-size="14" lengthAdjust="spacing" textLength="5" x="722.5" y="261.9951">:</text><ellipse cx="608" cy="274.0938" fill="#000000" rx="2.5" ry="2.5" style="stroke:#000000;stroke-width:0.0;"/><text fill="#000000" font-family="sans-serif" font-size="14" lengthAdjust="spacing" textLength="52" x="615.5" y="278.292">validate</text><ellipse cx="608" cy="290.3906" fill="#000000" rx="2.5" ry="2.5" style="stroke:#000000;stroke-width:0.0;"/><text fill="#000000" font-family="sans-serif" font-size="14" lengthAdjust="spacing" textLength="61" x="615.5" y="294.5889">calculate</text><ellipse cx="608" cy="306.6875" fill="#000000" rx="2.5" ry="2.5" style="stroke:#000000;stroke-width:0.0;"/><text fill="#000000" font-family="sans-serif" font-size="14" lengthAdjust="spacing" textLength="29" x="615.5" y="310.8857">filter</text><ellipse cx="608" cy="322.9844" fill="#000000" rx="2.5" ry="2.5" style="stroke:#000000;stroke-width:0.0;"/><text fill="#000000" font-family="sans-serif" font-size="14" lengthAdjust="spacing" textLength="68" x="615.5" y="327.1826">represent</text><!--MD5=[7468467f3b6b392f1d176d828c753b77]
entity db--><path d="M807.5,268.5 C807.5,258.5 854,258.5 854,258.5 C854,258.5 900.5,258.5 900.5,268.5 L900.5,310.0938 C900.5,320.0938 854,320.0938 854,320.0938 C854,320.0938 807.5,320.0938 807.5,310.0938 L807.5,268.5 " fill="#FEFECE" filter="url(#fgd4m9pu1y1q0)" style="stroke:#000000;stroke-width:1.5;"/><path d="M807.5,268.5 C807.5,278.5 854,278.5 854,278.5 C854,278.5 900.5,278.5 900.5,268.5 " fill="none" style="stroke:#000000;stroke-width:1.5;"/><text fill="#000000" font-family="sans-serif" font-size="14" font-weight="bold" lengthAdjust="spacing" textLength="73" x="817.5" y="295.4951">Database</text><text fill="#000000" font-family="sans-serif" font-size="14" lengthAdjust="spacing" textLength="54" x="817.5" y="311.792">(SQLite)</text><!--MD5=[57a5b41ed6b3ba96fe9b4a740eb3fdc7]
entity docs--><rect fill="#66AAFF" filter="url(#fgd4m9pu1y1q0)" height="55.5938" style="stroke:#000000;stroke-width:1.5;" width="187" x="11.5" y="7"/><polygon fill="#66AAFF" points="181.5,12,181.5,26,193.5,26,193.5,18,187.5,12,181.5,12" style="stroke:#000000;stroke-width:1.5;"/><line style="stroke:#000000;stroke-width:1.5;" x1="187.5" x2="187.5" y1="12" y2="18"/><line style="stroke:#000000;stroke-width:1.5;" x1="193.5" x2="187.5" y1="18" y2="18"/><text fill="#000000" font-family="sans-serif" font-size="14" font-weight="bold" lengthAdjust="spacing" textLength="157" x="21.5" y="32.9951">Documentation files</text><text fill="#000000" font-family="sans-serif" font-size="14" lengthAdjust="spacing" textLength="78" x="21.5" y="49.292">(md, rst, ...)</text><!--MD5=[13975603d50ae75a37e8557c4b6b6bc4]
entity final--><rect fill="#66AAFF" filter="url(#fgd4m9pu1y1q0)" height="55.5938" style="stroke:#000000;stroke-width:1.5;" width="189" x="10.5" y="471.5"/><polygon fill="#66AAFF" points="182.5,476.5,182.5,490.5,194.5,490.5,194.5,482.5,188.5,476.5,182.5,476.5" style="stroke:#000000;stroke-width:1.5;"/><line style="stroke:#000000;stroke-width:1.5;" x1="188.5" x2="188.5" y1="476.5" y2="482.5"/><line style="stroke:#000000;stroke-width:1.5;" x1="194.5" x2="188.5" y1="482.5" y2="482.5"/><text fill="#000000" font-family="sans-serif" font-size="14" font-weight="bold" lengthAdjust="spacing" textLength="159" x="20.5" y="497.4951">Final documentation</text><text fill="#000000" font-family="sans-serif" font-size="14" lengthAdjust="spacing" textLength="104" x="20.5" y="513.792">(HTML, PDF, ...)</text><!--MD5=[9423893651f9ffed8c6a12d25756b4db]
link rest to func--><path d="M527.28,289.5 C547.3,289.5 567.31,289.5 587.33,289.5 " fill="none" id="rest-func" style="stroke:#A80036;stroke-width:2.0;"/><polygon fill="#A80036" points="592.41,289.5,583.41,285.5,587.41,289.5,583.41,293.5,592.41,289.5" style="stroke:#A80036;stroke-width:2.0;"/><polygon fill="#A80036" points="522.06,289.5,531.06,293.5,527.06,289.5,531.06,285.5,522.06,289.5" style="stroke:#A80036;stroke-width:2.0;"/><!--MD5=[c84dda3cf0f26a0188958e07d99dc029]
link func to db--><path d="M742.88,289.5 C762.65,289.5 782.42,289.5 802.19,289.5 " fill="none" id="func-db" style="stroke:#A80036;stroke-width:2.0;"/><polygon fill="#A80036" points="807.22,289.5,798.22,285.5,802.22,289.5,798.22,293.5,807.22,289.5" style="stroke:#A80036;stroke-width:2.0;"/><polygon fill="#A80036" points="737.72,289.5,746.72,293.5,742.72,289.5,746.72,285.5,737.72,289.5" style="stroke:#A80036;stroke-width:2.0;"/><!--MD5=[5d49cc2c6d9fcbbfd867f59da20250e1]
link docs to parser--><path d="M105,63.05 C105,82.74 105,108.67 105,124.83 " fill="none" id="docs-to-parser" style="stroke:#A80036;stroke-width:2.0;"/><polygon fill="#A80036" points="105,129.92,109,120.92,105,124.92,101,120.92,105,129.92" style="stroke:#A80036;stroke-width:2.0;"/><!--MD5=[fd987d94ea57233ebe35d04182c3e6a6]
link parser to interface--><path d="M105,152.07 C105,175.14 105,232.34 105,264.88 " fill="none" id="parser-to-interface" style="stroke:#A80036;stroke-width:2.0;"/><polygon fill="#A80036" points="105,269.88,109,260.88,105,264.88,101,260.88,105,269.88" style="stroke:#A80036;stroke-width:2.0;"/><!--MD5=[bab9c52a08d05fc2cf8974ce86df8e1c]
link interface to data--><path d="M167.93,289.5 C187.73,289.5 207.54,289.5 227.34,289.5 " fill="none" id="interface-data" style="stroke:#A80036;stroke-width:2.0;"/><polygon fill="#A80036" points="232.37,289.5,223.37,285.5,227.37,289.5,223.37,293.5,232.37,289.5" style="stroke:#A80036;stroke-width:2.0;"/><polygon fill="#A80036" points="162.76,289.5,171.76,293.5,167.76,289.5,171.76,285.5,162.76,289.5" style="stroke:#A80036;stroke-width:2.0;"/><!--MD5=[5bbe23825fc74f6e2e89a868b3a97522]
link data to rest--><path d="M333.01,289.5 C352.91,289.5 372.81,289.5 392.72,289.5 " fill="none" id="data-rest" style="stroke:#A80036;stroke-width:2.0;"/><polygon fill="#A80036" points="397.78,289.5,388.78,285.5,392.78,289.5,388.78,293.5,397.78,289.5" style="stroke:#A80036;stroke-width:2.0;"/><polygon fill="#A80036" points="327.81,289.5,336.81,293.5,332.81,289.5,336.81,285.5,327.81,289.5" style="stroke:#A80036;stroke-width:2.0;"/><!--MD5=[d3321e63b5958f031f88092a63473491]
link interface to builder--><path d="M105,309.09 C105,332.6 105,372.6 105,394.34 " fill="none" id="interface-to-builder" style="stroke:#A80036;stroke-width:2.0;"/><polygon fill="#A80036" points="105,399.46,109,390.46,105,394.46,101,390.46,105,399.46" style="stroke:#A80036;stroke-width:2.0;"/><!--MD5=[798ee4f45b071aeabdf2ab74d84e38eb]
link builder to final--><path d="M105,427.09 C105,437.95 105,452.84 105,466.22 " fill="none" id="builder-final" style="stroke:#A80036;stroke-width:2.0;"/><polygon fill="#A80036" points="105,471.45,109,462.45,105,466.45,101,462.45,105,471.45" style="stroke:#A80036;stroke-width:2.0;"/><polygon fill="#A80036" points="105,421.82,101,430.82,105,426.82,109,430.82,105,421.82" style="stroke:#A80036;stroke-width:2.0;"/><!--MD5=[1680980fa6ac7f421a57cfddf20963d3]
@startuml
skinparam nodesep 70
skinparam ranksep 50

    artifact "**Documentation files**\n(md, rst, ...)" as docs #6af
    card "**Documentation Framework**\n(MkDocs, AsciiDoc, Sphinx, ...)" as df #6af {
        card "Parser" as parser
        card "Open-Needs Client" as client #6fa {
            card "Client specific\ninterface" as interface

            card "Open-Needs Server" as on {
                cloud "**API**\n(REST based)" as rest
                card "**Need functions**:\n*validate\n*calculate\n*filter\n*represent" as func #ccc
                database "**Database**\n(SQLite)" as db

                rest <=> func
                func <=> db
            }
            card "**Data**:\n<&chevron-left><&chevron-right>needs\n<&chevron-right>filters\n<&chevron-right>configs\n<&chevron-right>functions\n<&chevron-left>tables\n<&chevron-left>images" as data #ccc
        }
        card "Builder" as builder
    }

    artifact "**Final documentation**\n(HTML, PDF, ...)" as final #6af

    docs ==> parser
    parser ==> interface
    interface <=> data
    data <=> rest

    interface ==> builder

    builder <==> final


@enduml

PlantUML version 1.2022.0(Tue Jan 11 16:16:42 UTC 2022)
(GPL source distribution)
Java Runtime: OpenJDK Runtime Environment
JVM: OpenJDK 64-Bit Server VM
Default Encoding: UTF-8
Language: en
Country: null
--></g></svg>