<?xml version="1.0" encoding="UTF-8" standalone="no"?><svg xmlns="http://www.w3.org/2000/svg" xmlns:xlink="http://www.w3.org/1999/xlink" contentScriptType="application/ecmascript" contentStyleType="text/css" height="318px" preserveAspectRatio="none" style="width:1823px;height:318px;background:#FFFFFF;" version="1.1" viewBox="0 0 1823 318" width="1823px" zoomAndPan="magnify"><defs/><g><rect fill="#FFFFFF" height="121.7813" rx="5" ry="5" style="stroke:#FFFFFF;stroke-width:1.5;" width="479" x="10" y="102.5"/><text fill="#000000" font-family="sans-serif" font-size="14" font-weight="bold" lengthAdjust="spacing" textLength="71" x="15" y="117.4951">$schema</text><text fill="#000000" font-family="sans-serif" font-size="14" lengthAdjust="spacing" textLength="327" x="108" y="117.4951">https://json-schema.org/draft/2020-12/schema</text><line style="stroke:#000000;stroke-width:1.0;" x1="103" x2="103" y1="102.5" y2="122.7969"/><line style="stroke:#000000;stroke-width:1.0;" x1="10" x2="489" y1="122.7969" y2="122.7969"/><text fill="#000000" font-family="sans-serif" font-size="14" font-weight="bold" lengthAdjust="spacing" textLength="24" x="15" y="137.792">$id</text><text fill="#000000" font-family="sans-serif" font-size="14" lengthAdjust="spacing" textLength="376" x="108" y="137.792">https://open-needs.org/needs_container.schema.json</text><line style="stroke:#000000;stroke-width:1.0;" x1="103" x2="103" y1="122.7969" y2="143.0938"/><line style="stroke:#000000;stroke-width:1.0;" x1="10" x2="489" y1="143.0938" y2="143.0938"/><text fill="#000000" font-family="sans-serif" font-size="14" font-weight="bold" lengthAdjust="spacing" textLength="30" x="15" y="158.0889">title</text><text fill="#000000" font-family="sans-serif" font-size="14" lengthAdjust="spacing" textLength="265" x="108" y="158.0889">Open-Needs Needs container schema</text><line style="stroke:#000000;stroke-width:1.0;" x1="103" x2="103" y1="143.0938" y2="163.3906"/><line style="stroke:#000000;stroke-width:1.0;" x1="10" x2="489" y1="163.3906" y2="163.3906"/><text fill="#000000" font-family="sans-serif" font-size="14" font-weight="bold" lengthAdjust="spacing" textLength="35" x="15" y="178.3857">type</text><text fill="#000000" font-family="sans-serif" font-size="14" lengthAdjust="spacing" textLength="43" x="108" y="178.3857">object</text><line style="stroke:#000000;stroke-width:1.0;" x1="103" x2="103" y1="163.3906" y2="183.6875"/><line style="stroke:#000000;stroke-width:1.0;" x1="10" x2="489" y1="183.6875" y2="183.6875"/><text fill="#000000" font-family="sans-serif" font-size="14" font-weight="bold" lengthAdjust="spacing" textLength="83" x="15" y="198.6826">properties</text><text fill="#000000" font-family="sans-serif" font-size="14" lengthAdjust="spacing" textLength="0" x="120" y="198.6826"/><line style="stroke:#000000;stroke-width:1.0;" x1="103" x2="103" y1="183.6875" y2="203.9844"/><line style="stroke:#000000;stroke-width:1.0;" x1="10" x2="489" y1="203.9844" y2="203.9844"/><text fill="#000000" font-family="sans-serif" font-size="14" font-weight="bold" lengthAdjust="spacing" textLength="68" x="15" y="218.9795">required</text><text fill="#000000" font-family="sans-serif" font-size="14" lengthAdjust="spacing" textLength="0" x="120" y="218.9795"/><line style="stroke:#000000;stroke-width:1.0;" x1="103" x2="103" y1="203.9844" y2="224.2813"/><rect fill="none" height="121.7813" rx="5" ry="5" style="stroke:#000000;stroke-width:1.5;" width="479" x="10" y="102.5"/><rect fill="#FFFFFF" height="101.4844" rx="5" ry="5" style="stroke:#FFFFFF;stroke-width:1.5;" width="137" x="526" y="99"/><text fill="#000000" font-family="sans-serif" font-size="14" font-weight="bold" lengthAdjust="spacing" textLength="28" x="531" y="113.9951">key</text><text fill="#000000" font-family="sans-serif" font-size="14" lengthAdjust="spacing" textLength="0" x="658" y="113.9951"/><line style="stroke:#000000;stroke-width:1.0;" x1="641" x2="641" y1="99" y2="119.2969"/><line style="stroke:#000000;stroke-width:1.0;" x1="526" x2="663" y1="119.2969" y2="119.2969"/><text fill="#000000" font-family="sans-serif" font-size="14" font-weight="bold" lengthAdjust="spacing" textLength="30" x="531" y="134.292">title</text><text fill="#000000" font-family="sans-serif" font-size="14" lengthAdjust="spacing" textLength="0" x="658" y="134.292"/><line style="stroke:#000000;stroke-width:1.0;" x1="641" x2="641" y1="119.2969" y2="139.5938"/><line style="stroke:#000000;stroke-width:1.0;" x1="526" x2="663" y1="139.5938" y2="139.5938"/><text fill="#000000" font-family="sans-serif" font-size="14" font-weight="bold" lengthAdjust="spacing" textLength="89" x="531" y="154.5889">description</text><text fill="#000000" font-family="sans-serif" font-size="14" lengthAdjust="spacing" textLength="0" x="658" y="154.5889"/><line style="stroke:#000000;stroke-width:1.0;" x1="641" x2="641" y1="139.5938" y2="159.8906"/><line style="stroke:#000000;stroke-width:1.0;" x1="526" x2="663" y1="159.8906" y2="159.8906"/><text fill="#000000" font-family="sans-serif" font-size="14" font-weight="bold" lengthAdjust="spacing" textLength="49" x="531" y="174.8857">needs</text><text fill="#000000" font-family="sans-serif" font-size="14" lengthAdjust="spacing" textLength="0" x="658" y="174.8857"/><line style="stroke:#000000;stroke-width:1.0;" x1="641" x2="641" y1="159.8906" y2="180.1875"/><line style="stroke:#000000;stroke-width:1.0;" x1="526" x2="663" y1="180.1875" y2="180.1875"/><text fill="#000000" font-family="sans-serif" font-size="14" font-weight="bold" lengthAdjust="spacing" textLength="105" x="531" y="195.1826">configuration</text><text fill="#000000" font-family="sans-serif" font-size="14" lengthAdjust="spacing" textLength="0" x="658" y="195.1826"/><line style="stroke:#000000;stroke-width:1.0;" x1="641" x2="641" y1="180.1875" y2="200.4844"/><rect fill="none" height="101.4844" rx="5" ry="5" style="stroke:#000000;stroke-width:1.5;" width="137" x="526" y="99"/><rect fill="#FFFFFF" height="40.5938" rx="5" ry="5" style="stroke:#FFFFFF;stroke-width:1.5;" width="526" x="799.5" y="10"/><text fill="#000000" font-family="sans-serif" font-size="14" font-weight="bold" lengthAdjust="spacing" textLength="89" x="804.5" y="24.9951">description</text><text fill="#000000" font-family="sans-serif" font-size="14" lengthAdjust="spacing" textLength="417" x="903.5" y="24.9951">An unique string as key, which represents the project in urls.</text><line style="stroke:#000000;stroke-width:1.0;" x1="898.5" x2="898.5" y1="10" y2="30.2969"/><line style="stroke:#000000;stroke-width:1.0;" x1="799.5" x2="1325.5" y1="30.2969" y2="30.2969"/><text fill="#000000" font-family="sans-serif" font-size="14" font-weight="bold" lengthAdjust="spacing" textLength="35" x="804.5" y="45.292">type</text><text fill="#000000" font-family="sans-serif" font-size="14" lengthAdjust="spacing" textLength="39" x="903.5" y="45.292">string</text><line style="stroke:#000000;stroke-width:1.0;" x1="898.5" x2="898.5" y1="30.2969" y2="50.5938"/><rect fill="none" height="40.5938" rx="5" ry="5" style="stroke:#000000;stroke-width:1.5;" width="526" x="799.5" y="10"/><rect fill="#FFFFFF" height="40.5938" rx="5" ry="5" style="stroke:#FFFFFF;stroke-width:1.5;" width="725" x="700" y="69"/><text fill="#000000" font-family="sans-serif" font-size="14" font-weight="bold" lengthAdjust="spacing" textLength="89" x="705" y="83.9951">description</text><text fill="#000000" font-family="sans-serif" font-size="14" lengthAdjust="spacing" textLength="616" x="804" y="83.9951">A title for the project, which is used as textual representation in documents and websites.</text><line style="stroke:#000000;stroke-width:1.0;" x1="799" x2="799" y1="69" y2="89.2969"/><line style="stroke:#000000;stroke-width:1.0;" x1="700" x2="1425" y1="89.2969" y2="89.2969"/><text fill="#000000" font-family="sans-serif" font-size="14" font-weight="bold" lengthAdjust="spacing" textLength="35" x="705" y="104.292">type</text><text fill="#000000" font-family="sans-serif" font-size="14" lengthAdjust="spacing" textLength="39" x="804" y="104.292">string</text><line style="stroke:#000000;stroke-width:1.0;" x1="799" x2="799" y1="89.2969" y2="109.5938"/><rect fill="none" height="40.5938" rx="5" ry="5" style="stroke:#000000;stroke-width:1.5;" width="725" x="700" y="69"/><rect fill="#FFFFFF" height="40.5938" rx="5" ry="5" style="stroke:#FFFFFF;stroke-width:1.5;" width="349" x="888" y="128"/><text fill="#000000" font-family="sans-serif" font-size="14" font-weight="bold" lengthAdjust="spacing" textLength="89" x="893" y="142.9951">description</text><text fill="#000000" font-family="sans-serif" font-size="14" lengthAdjust="spacing" textLength="240" x="992" y="142.9951">A textual description of the project.</text><line style="stroke:#000000;stroke-width:1.0;" x1="987" x2="987" y1="128" y2="148.2969"/><line style="stroke:#000000;stroke-width:1.0;" x1="888" x2="1237" y1="148.2969" y2="148.2969"/><text fill="#000000" font-family="sans-serif" font-size="14" font-weight="bold" lengthAdjust="spacing" textLength="35" x="893" y="163.292">type</text><text fill="#000000" font-family="sans-serif" font-size="14" lengthAdjust="spacing" textLength="39" x="992" y="163.292">string</text><line style="stroke:#000000;stroke-width:1.0;" x1="987" x2="987" y1="148.2969" y2="168.5938"/><rect fill="none" height="40.5938" rx="5" ry="5" style="stroke:#000000;stroke-width:1.5;" width="349" x="888" y="128"/><rect fill="#FFFFFF" height="60.8906" rx="5" ry="5" style="stroke:#FFFFFF;stroke-width:1.5;" width="376" x="874.5" y="187"/><text fill="#000000" font-family="sans-serif" font-size="14" font-weight="bold" lengthAdjust="spacing" textLength="89" x="879.5" y="201.9951">description</text><text fill="#000000" font-family="sans-serif" font-size="14" lengthAdjust="spacing" textLength="267" x="978.5" y="201.9951">A list of needs belonging to the project</text><line style="stroke:#000000;stroke-width:1.0;" x1="973.5" x2="973.5" y1="187" y2="207.2969"/><line style="stroke:#000000;stroke-width:1.0;" x1="874.5" x2="1250.5" y1="207.2969" y2="207.2969"/><text fill="#000000" font-family="sans-serif" font-size="14" font-weight="bold" lengthAdjust="spacing" textLength="35" x="879.5" y="222.292">type</text><text fill="#000000" font-family="sans-serif" font-size="14" lengthAdjust="spacing" textLength="33" x="978.5" y="222.292">array</text><line style="stroke:#000000;stroke-width:1.0;" x1="973.5" x2="973.5" y1="207.2969" y2="227.5938"/><line style="stroke:#000000;stroke-width:1.0;" x1="874.5" x2="1250.5" y1="227.5938" y2="227.5938"/><text fill="#000000" font-family="sans-serif" font-size="14" font-weight="bold" lengthAdjust="spacing" textLength="43" x="879.5" y="242.5889">items</text><text fill="#000000" font-family="sans-serif" font-size="14" lengthAdjust="spacing" textLength="0" x="990.5" y="242.5889"/><line style="stroke:#000000;stroke-width:1.0;" x1="973.5" x2="973.5" y1="227.5938" y2="247.8906"/><rect fill="none" height="60.8906" rx="5" ry="5" style="stroke:#000000;stroke-width:1.5;" width="376" x="874.5" y="187"/><rect fill="#FFFFFF" height="20.2969" rx="5" ry="5" style="stroke:#FFFFFF;stroke-width:1.5;" width="349" x="1462" y="227.5"/><text fill="#000000" font-family="sans-serif" font-size="14" font-weight="bold" lengthAdjust="spacing" textLength="33" x="1467" y="242.4951">$ref</text><text fill="#000000" font-family="sans-serif" font-size="14" lengthAdjust="spacing" textLength="296" x="1510" y="242.4951">https://open-needs.org/need.schema.json</text><line style="stroke:#000000;stroke-width:1.0;" x1="1505" x2="1505" y1="227.5" y2="247.7969"/><rect fill="none" height="20.2969" rx="5" ry="5" style="stroke:#000000;stroke-width:1.5;" width="349" x="1462" y="227.5"/><rect fill="#FFFFFF" height="40.5938" rx="5" ry="5" style="stroke:#FFFFFF;stroke-width:1.5;" width="572" x="776.5" y="266"/><text fill="#000000" font-family="sans-serif" font-size="14" font-weight="bold" lengthAdjust="spacing" textLength="89" x="781.5" y="280.9951">description</text><text fill="#000000" font-family="sans-serif" font-size="14" lengthAdjust="spacing" textLength="463" x="880.5" y="280.9951">A needs container specific configuration, based on domain.schema</text><line style="stroke:#000000;stroke-width:1.0;" x1="875.5" x2="875.5" y1="266" y2="286.2969"/><line style="stroke:#000000;stroke-width:1.0;" x1="776.5" x2="1348.5" y1="286.2969" y2="286.2969"/><text fill="#000000" font-family="sans-serif" font-size="14" font-weight="bold" lengthAdjust="spacing" textLength="33" x="781.5" y="301.292">$ref</text><text fill="#000000" font-family="sans-serif" font-size="14" lengthAdjust="spacing" textLength="311" x="880.5" y="301.292">https://open-needs.org/domain.schema.json</text><line style="stroke:#000000;stroke-width:1.0;" x1="875.5" x2="875.5" y1="286.2969" y2="306.5938"/><rect fill="none" height="40.5938" rx="5" ry="5" style="stroke:#000000;stroke-width:1.5;" width="572" x="776.5" y="266"/><rect fill="#FFFFFF" height="81.1875" rx="5" ry="5" style="stroke:#FFFFFF;stroke-width:1.5;" width="100" x="544.5" y="218"/><text fill="#000000" font-family="sans-serif" font-size="14" lengthAdjust="spacing" textLength="24" x="549.5" y="232.9951">key</text><line style="stroke:#000000;stroke-width:1.0;" x1="544.5" x2="644.5" y1="238.2969" y2="238.2969"/><text fill="#000000" font-family="sans-serif" font-size="14" lengthAdjust="spacing" textLength="25" x="549.5" y="253.292">title</text><line style="stroke:#000000;stroke-width:1.0;" x1="544.5" x2="644.5" y1="258.5938" y2="258.5938"/><text fill="#000000" font-family="sans-serif" font-size="14" lengthAdjust="spacing" textLength="90" x="549.5" y="273.5889">configuration</text><line style="stroke:#000000;stroke-width:1.0;" x1="544.5" x2="644.5" y1="278.8906" y2="278.8906"/><text fill="#000000" font-family="sans-serif" font-size="14" lengthAdjust="spacing" textLength="44" x="549.5" y="293.8857">needs</text><rect fill="none" height="81.1875" rx="5" ry="5" style="stroke:#000000;stroke-width:1.5;" width="100" x="544.5" y="218"/><path d="M651,108.5 L664,108.5 C690.6667,108.5 676.6619,73.4013 700,60.5 C728.23,44.8945 759.6305,34.3274 791.8076,27.4083 " fill="none" style="stroke:#000000;stroke-width:1.0;stroke-dasharray:3.0,3.0;"/><path d="M792.4454,30.5094 L794.1334,26.93 L791.1699,24.3073 L799.5602,25.8139 L792.4454,30.5094 " fill="#000000" style="stroke:#000000;stroke-width:1.0;"/><ellipse cx="651" cy="108.5" fill="#000000" rx="3" ry="3" style="stroke:#000000;stroke-width:1.0;"/><path d="M651,128.5 L664,128.5 C680.4924,128.5 683.7284,122.1899 700,119.5 C719.0337,116.3535 738.6877,113.5306 758.5421,110.9989 " fill="none" style="stroke:#000000;stroke-width:1.0;stroke-dasharray:3.0,3.0;"/><path d="M758.9245,114.0462 L760.8275,110.712 L758.1596,107.9516 L766.1604,110.0428 L758.9245,114.0462 " fill="#000000" style="stroke:#000000;stroke-width:1.0;"/><ellipse cx="651" cy="128.5" fill="#000000" rx="3" ry="3" style="stroke:#000000;stroke-width:1.0;"/><path d="M651,148.5 L664,148.5 C734.6914,148.5 812.4455,148.5 880.3272,148.5 " fill="none" style="stroke:#000000;stroke-width:1.0;stroke-dasharray:3.0,3.0;"/><path d="M880.3272,151.6214 L882.6682,148.5 L880.3272,145.3786 L888.1306,148.5 L880.3272,151.6214 " fill="#000000" style="stroke:#000000;stroke-width:1.0;"/><ellipse cx="651" cy="148.5" fill="#000000" rx="3" ry="3" style="stroke:#000000;stroke-width:1.0;"/><path d="M1239,237.5 L1252,237.5 C1317.9844,237.5 1390.3466,237.5 1454.2916,237.5 " fill="none" style="stroke:#000000;stroke-width:1.0;stroke-dasharray:3.0,3.0;"/><path d="M1454.2916,240.6022 L1456.6182,237.5 L1454.2916,234.3978 L1462.047,237.5 L1454.2916,240.6022 " fill="#000000" style="stroke:#000000;stroke-width:1.0;"/><ellipse cx="1239" cy="237.5" fill="#000000" rx="3" ry="3" style="stroke:#000000;stroke-width:1.0;"/><path d="M651,169.5 L664,169.5 C680.4924,169.5 683.7628,175.6099 700,178.5 C753.9392,188.1009 812.8496,195.6712 867.1822,201.4853 " fill="none" style="stroke:#000000;stroke-width:1.0;stroke-dasharray:3.0,3.0;"/><path d="M866.8586,204.5394 L869.4727,201.7279 L867.5057,198.4312 L874.8173,202.2941 L866.8586,204.5394 " fill="#000000" style="stroke:#000000;stroke-width:1.0;"/><ellipse cx="651" cy="169.5" fill="#000000" rx="3" ry="3" style="stroke:#000000;stroke-width:1.0;"/><path d="M651,189.5 L664,189.5 C698.1962,189.5 671.4321,238.7048 700,257.5 C721.2131,271.4564 744.7112,281.7392 769.2503,289.159 " fill="none" style="stroke:#000000;stroke-width:1.0;stroke-dasharray:3.0,3.0;"/><path d="M768.4045,292.0775 L771.4391,289.7933 L770.096,286.2405 L776.5465,291.2733 L768.4045,292.0775 " fill="#000000" style="stroke:#000000;stroke-width:1.0;"/><ellipse cx="651" cy="189.5" fill="#000000" rx="3" ry="3" style="stroke:#000000;stroke-width:1.0;"/><path d="M477,193.5 L490,193.5 C499.6861,193.5 509.5071,191.8612 519.0502,189.2161 " fill="none" style="stroke:#000000;stroke-width:1.0;stroke-dasharray:3.0,3.0;"/><path d="M519.9336,192.1107 L521.2212,188.5535 L518.1668,186.3214 L526.2868,187.0076 L519.9336,192.1107 " fill="#000000" style="stroke:#000000;stroke-width:1.0;"/><ellipse cx="477" cy="193.5" fill="#000000" rx="3" ry="3" style="stroke:#000000;stroke-width:1.0;"/><path d="M477,214.5 L490,214.5 C506.1741,214.5 522.7244,219.0696 537.7287,225.2636 " fill="none" style="stroke:#000000;stroke-width:1.0;stroke-dasharray:3.0,3.0;"/><path d="M536.4654,228.1569 L539.8987,226.2111 L538.992,222.3704 L544.9619,228.4219 L536.4654,228.1569 " fill="#000000" style="stroke:#000000;stroke-width:1.0;"/><ellipse cx="477" cy="214.5" fill="#000000" rx="3" ry="3" style="stroke:#000000;stroke-width:1.0;"/><!--MD5=[dfc007d9762e218fbc220c598f86ae86]
@startjson
!include models/needs_container.schema.json
@endjson

@startjson
{
  "$schema": "https://json-schema.org/draft/2020-12/schema",
  "$id": "https://open-needs.org/needs_container.schema.json",
  "title": "Open-Needs Needs container schema",
  "type": "object",
  "properties": {
    "key": {
      "description": "An unique string as key, which represents the project in urls.",
      "type": "string"
    },
    "title": {
      "description": "A title for the project, which is used as textual representation in documents and websites.",
      "type":  "string"
    },
    "description": {
      "description": "A textual description of the project.",
      "type":  "string"
    },
    "needs": {
      "description": "A list of needs belonging to the project",
      "type": "array",
      "items": {
         "$ref": "https://open-needs.org/need.schema.json"
      }
    },
    "configuration": {
      "description": "A needs container specific configuration, based on domain.schema",
      "$ref": "https://open-needs.org/domain.schema.json"
    }
  },
  "required": ["key", "title", "configuration", "needs"]
}
@endjson

PlantUML version 1.2022.0(Tue Jan 11 16:16:42 UTC 2022)
(GPL source distribution)
Java Runtime: OpenJDK Runtime Environment
JVM: OpenJDK 64-Bit Server VM
Default Encoding: UTF-8
Language: en
Country: null
--></g></svg>