<?xml version="1.0" encoding="UTF-8" standalone="no"?><svg xmlns="http://www.w3.org/2000/svg" xmlns:xlink="http://www.w3.org/1999/xlink" contentScriptType="application/ecmascript" contentStyleType="text/css" height="318px" preserveAspectRatio="none" style="width:1825px;height:318px;background:#FFFFFF;" version="1.1" viewBox="0 0 1825 318" width="1825px" zoomAndPan="magnify"><defs/><g><rect fill="#FFFFFF" height="121.7813" rx="5" ry="5" style="stroke:#FFFFFF;stroke-width:1.5;" width="448" x="10" y="97.5"/><text fill="#000000" font-family="sans-serif" font-size="14" font-weight="bold" lengthAdjust="spacing" textLength="71" x="15" y="112.4951">$schema</text><text fill="#000000" font-family="sans-serif" font-size="14" lengthAdjust="spacing" textLength="327" x="108" y="112.4951">https://json-schema.org/draft/2020-12/schema</text><line style="stroke:#000000;stroke-width:1.0;" x1="103" x2="103" y1="97.5" y2="117.7969"/><line style="stroke:#000000;stroke-width:1.0;" x1="10" x2="458" y1="117.7969" y2="117.7969"/><text fill="#000000" font-family="sans-serif" font-size="14" font-weight="bold" lengthAdjust="spacing" textLength="24" x="15" y="132.792">$id</text><text fill="#000000" font-family="sans-serif" font-size="14" lengthAdjust="spacing" textLength="345" x="108" y="132.792">https://open-needs.org/organization.schema.json</text><line style="stroke:#000000;stroke-width:1.0;" x1="103" x2="103" y1="117.7969" y2="138.0938"/><line style="stroke:#000000;stroke-width:1.0;" x1="10" x2="458" y1="138.0938" y2="138.0938"/><text fill="#000000" font-family="sans-serif" font-size="14" font-weight="bold" lengthAdjust="spacing" textLength="30" x="15" y="153.0889">title</text><text fill="#000000" font-family="sans-serif" font-size="14" lengthAdjust="spacing" textLength="238" x="108" y="153.0889">Open-Needs Organization schema</text><line style="stroke:#000000;stroke-width:1.0;" x1="103" x2="103" y1="138.0938" y2="158.3906"/><line style="stroke:#000000;stroke-width:1.0;" x1="10" x2="458" y1="158.3906" y2="158.3906"/><text fill="#000000" font-family="sans-serif" font-size="14" font-weight="bold" lengthAdjust="spacing" textLength="35" x="15" y="173.3857">type</text><text fill="#000000" font-family="sans-serif" font-size="14" lengthAdjust="spacing" textLength="43" x="108" y="173.3857">object</text><line style="stroke:#000000;stroke-width:1.0;" x1="103" x2="103" y1="158.3906" y2="178.6875"/><line style="stroke:#000000;stroke-width:1.0;" x1="10" x2="458" y1="178.6875" y2="178.6875"/><text fill="#000000" font-family="sans-serif" font-size="14" font-weight="bold" lengthAdjust="spacing" textLength="83" x="15" y="193.6826">properties</text><text fill="#000000" font-family="sans-serif" font-size="14" lengthAdjust="spacing" textLength="0" x="120" y="193.6826"/><line style="stroke:#000000;stroke-width:1.0;" x1="103" x2="103" y1="178.6875" y2="198.9844"/><line style="stroke:#000000;stroke-width:1.0;" x1="10" x2="458" y1="198.9844" y2="198.9844"/><text fill="#000000" font-family="sans-serif" font-size="14" font-weight="bold" lengthAdjust="spacing" textLength="68" x="15" y="213.9795">required</text><text fill="#000000" font-family="sans-serif" font-size="14" lengthAdjust="spacing" textLength="0" x="120" y="213.9795"/><line style="stroke:#000000;stroke-width:1.0;" x1="103" x2="103" y1="198.9844" y2="219.2813"/><rect fill="none" height="121.7813" rx="5" ry="5" style="stroke:#000000;stroke-width:1.5;" width="448" x="10" y="97.5"/><rect fill="#FFFFFF" height="101.4844" rx="5" ry="5" style="stroke:#FFFFFF;stroke-width:1.5;" width="121" x="495" y="99"/><text fill="#000000" font-family="sans-serif" font-size="14" font-weight="bold" lengthAdjust="spacing" textLength="28" x="500" y="113.9951">key</text><text fill="#000000" font-family="sans-serif" font-size="14" lengthAdjust="spacing" textLength="0" x="611" y="113.9951"/><line style="stroke:#000000;stroke-width:1.0;" x1="594" x2="594" y1="99" y2="119.2969"/><line style="stroke:#000000;stroke-width:1.0;" x1="495" x2="616" y1="119.2969" y2="119.2969"/><text fill="#000000" font-family="sans-serif" font-size="14" font-weight="bold" lengthAdjust="spacing" textLength="30" x="500" y="134.292">title</text><text fill="#000000" font-family="sans-serif" font-size="14" lengthAdjust="spacing" textLength="0" x="611" y="134.292"/><line style="stroke:#000000;stroke-width:1.0;" x1="594" x2="594" y1="119.2969" y2="139.5938"/><line style="stroke:#000000;stroke-width:1.0;" x1="495" x2="616" y1="139.5938" y2="139.5938"/><text fill="#000000" font-family="sans-serif" font-size="14" font-weight="bold" lengthAdjust="spacing" textLength="89" x="500" y="154.5889">description</text><text fill="#000000" font-family="sans-serif" font-size="14" lengthAdjust="spacing" textLength="0" x="611" y="154.5889"/><line style="stroke:#000000;stroke-width:1.0;" x1="594" x2="594" y1="139.5938" y2="159.8906"/><line style="stroke:#000000;stroke-width:1.0;" x1="495" x2="616" y1="159.8906" y2="159.8906"/><text fill="#000000" font-family="sans-serif" font-size="14" font-weight="bold" lengthAdjust="spacing" textLength="21" x="500" y="174.8857">url</text><text fill="#000000" font-family="sans-serif" font-size="14" lengthAdjust="spacing" textLength="0" x="611" y="174.8857"/><line style="stroke:#000000;stroke-width:1.0;" x1="594" x2="594" y1="159.8906" y2="180.1875"/><line style="stroke:#000000;stroke-width:1.0;" x1="495" x2="616" y1="180.1875" y2="180.1875"/><text fill="#000000" font-family="sans-serif" font-size="14" font-weight="bold" lengthAdjust="spacing" textLength="65" x="500" y="195.1826">projects</text><text fill="#000000" font-family="sans-serif" font-size="14" lengthAdjust="spacing" textLength="0" x="611" y="195.1826"/><line style="stroke:#000000;stroke-width:1.0;" x1="594" x2="594" y1="180.1875" y2="200.4844"/><rect fill="none" height="101.4844" rx="5" ry="5" style="stroke:#000000;stroke-width:1.5;" width="121" x="495" y="99"/><rect fill="#FFFFFF" height="40.5938" rx="5" ry="5" style="stroke:#FFFFFF;stroke-width:1.5;" width="563" x="752.5" y="10"/><text fill="#000000" font-family="sans-serif" font-size="14" font-weight="bold" lengthAdjust="spacing" textLength="89" x="757.5" y="24.9951">description</text><text fill="#000000" font-family="sans-serif" font-size="14" lengthAdjust="spacing" textLength="454" x="856.5" y="24.9951">An unique string as key, which represents the organization in urls.</text><line style="stroke:#000000;stroke-width:1.0;" x1="851.5" x2="851.5" y1="10" y2="30.2969"/><line style="stroke:#000000;stroke-width:1.0;" x1="752.5" x2="1315.5" y1="30.2969" y2="30.2969"/><text fill="#000000" font-family="sans-serif" font-size="14" font-weight="bold" lengthAdjust="spacing" textLength="35" x="757.5" y="45.292">type</text><text fill="#000000" font-family="sans-serif" font-size="14" lengthAdjust="spacing" textLength="39" x="856.5" y="45.292">string</text><line style="stroke:#000000;stroke-width:1.0;" x1="851.5" x2="851.5" y1="30.2969" y2="50.5938"/><rect fill="none" height="40.5938" rx="5" ry="5" style="stroke:#000000;stroke-width:1.5;" width="563" x="752.5" y="10"/><rect fill="#FFFFFF" height="40.5938" rx="5" ry="5" style="stroke:#FFFFFF;stroke-width:1.5;" width="762" x="653" y="69"/><text fill="#000000" font-family="sans-serif" font-size="14" font-weight="bold" lengthAdjust="spacing" textLength="89" x="658" y="83.9951">description</text><text fill="#000000" font-family="sans-serif" font-size="14" lengthAdjust="spacing" textLength="653" x="757" y="83.9951">A title for the organization, which is used as textual representation in documents and websites.</text><line style="stroke:#000000;stroke-width:1.0;" x1="752" x2="752" y1="69" y2="89.2969"/><line style="stroke:#000000;stroke-width:1.0;" x1="653" x2="1415" y1="89.2969" y2="89.2969"/><text fill="#000000" font-family="sans-serif" font-size="14" font-weight="bold" lengthAdjust="spacing" textLength="35" x="658" y="104.292">type</text><text fill="#000000" font-family="sans-serif" font-size="14" lengthAdjust="spacing" textLength="39" x="757" y="104.292">string</text><line style="stroke:#000000;stroke-width:1.0;" x1="752" x2="752" y1="89.2969" y2="109.5938"/><rect fill="none" height="40.5938" rx="5" ry="5" style="stroke:#000000;stroke-width:1.5;" width="762" x="653" y="69"/><rect fill="#FFFFFF" height="40.5938" rx="5" ry="5" style="stroke:#FFFFFF;stroke-width:1.5;" width="336" x="866" y="128"/><text fill="#000000" font-family="sans-serif" font-size="14" font-weight="bold" lengthAdjust="spacing" textLength="89" x="871" y="142.9951">description</text><text fill="#000000" font-family="sans-serif" font-size="14" lengthAdjust="spacing" textLength="227" x="970" y="142.9951">A description of the organization.</text><line style="stroke:#000000;stroke-width:1.0;" x1="965" x2="965" y1="128" y2="148.2969"/><line style="stroke:#000000;stroke-width:1.0;" x1="866" x2="1202" y1="148.2969" y2="148.2969"/><text fill="#000000" font-family="sans-serif" font-size="14" font-weight="bold" lengthAdjust="spacing" textLength="35" x="871" y="163.292">type</text><text fill="#000000" font-family="sans-serif" font-size="14" lengthAdjust="spacing" textLength="39" x="970" y="163.292">string</text><line style="stroke:#000000;stroke-width:1.0;" x1="965" x2="965" y1="148.2969" y2="168.5938"/><rect fill="none" height="40.5938" rx="5" ry="5" style="stroke:#000000;stroke-width:1.5;" width="336" x="866" y="128"/><rect fill="#FFFFFF" height="40.5938" rx="5" ry="5" style="stroke:#FFFFFF;stroke-width:1.5;" width="383" x="842.5" y="187"/><text fill="#000000" font-family="sans-serif" font-size="14" font-weight="bold" lengthAdjust="spacing" textLength="89" x="847.5" y="201.9951">description</text><text fill="#000000" font-family="sans-serif" font-size="14" lengthAdjust="spacing" textLength="274" x="946.5" y="201.9951">An url to a webpage of the organization.</text><line style="stroke:#000000;stroke-width:1.0;" x1="941.5" x2="941.5" y1="187" y2="207.2969"/><line style="stroke:#000000;stroke-width:1.0;" x1="842.5" x2="1225.5" y1="207.2969" y2="207.2969"/><text fill="#000000" font-family="sans-serif" font-size="14" font-weight="bold" lengthAdjust="spacing" textLength="35" x="847.5" y="222.292">type</text><text fill="#000000" font-family="sans-serif" font-size="14" lengthAdjust="spacing" textLength="39" x="946.5" y="222.292">string</text><line style="stroke:#000000;stroke-width:1.0;" x1="941.5" x2="941.5" y1="207.2969" y2="227.5938"/><rect fill="none" height="40.5938" rx="5" ry="5" style="stroke:#000000;stroke-width:1.5;" width="383" x="842.5" y="187"/><rect fill="#FFFFFF" height="60.8906" rx="5" ry="5" style="stroke:#FFFFFF;stroke-width:1.5;" width="425" x="821.5" y="246"/><text fill="#000000" font-family="sans-serif" font-size="14" font-weight="bold" lengthAdjust="spacing" textLength="89" x="826.5" y="260.9951">description</text><text fill="#000000" font-family="sans-serif" font-size="14" lengthAdjust="spacing" textLength="316" x="925.5" y="260.9951">A list of projects belonging to the organization</text><line style="stroke:#000000;stroke-width:1.0;" x1="920.5" x2="920.5" y1="246" y2="266.2969"/><line style="stroke:#000000;stroke-width:1.0;" x1="821.5" x2="1246.5" y1="266.2969" y2="266.2969"/><text fill="#000000" font-family="sans-serif" font-size="14" font-weight="bold" lengthAdjust="spacing" textLength="35" x="826.5" y="281.292">type</text><text fill="#000000" font-family="sans-serif" font-size="14" lengthAdjust="spacing" textLength="33" x="925.5" y="281.292">array</text><line style="stroke:#000000;stroke-width:1.0;" x1="920.5" x2="920.5" y1="266.2969" y2="286.5938"/><line style="stroke:#000000;stroke-width:1.0;" x1="821.5" x2="1246.5" y1="286.5938" y2="286.5938"/><text fill="#000000" font-family="sans-serif" font-size="14" font-weight="bold" lengthAdjust="spacing" textLength="43" x="826.5" y="301.5889">items</text><text fill="#000000" font-family="sans-serif" font-size="14" lengthAdjust="spacing" textLength="0" x="937.5" y="301.5889"/><line style="stroke:#000000;stroke-width:1.0;" x1="920.5" x2="920.5" y1="286.5938" y2="306.8906"/><rect fill="none" height="60.8906" rx="5" ry="5" style="stroke:#000000;stroke-width:1.5;" width="425" x="821.5" y="246"/><rect fill="#FFFFFF" height="20.2969" rx="5" ry="5" style="stroke:#FFFFFF;stroke-width:1.5;" width="361" x="1452" y="286.5"/><text fill="#000000" font-family="sans-serif" font-size="14" font-weight="bold" lengthAdjust="spacing" textLength="33" x="1457" y="301.4951">$ref</text><text fill="#000000" font-family="sans-serif" font-size="14" lengthAdjust="spacing" textLength="308" x="1500" y="301.4951">https://open-needs.org/project.schema.json</text><line style="stroke:#000000;stroke-width:1.0;" x1="1495" x2="1495" y1="286.5" y2="306.7969"/><rect fill="none" height="20.2969" rx="5" ry="5" style="stroke:#000000;stroke-width:1.5;" width="361" x="1452" y="286.5"/><rect fill="#FFFFFF" height="60.8906" rx="5" ry="5" style="stroke:#FFFFFF;stroke-width:1.5;" width="66" x="522.5" y="218"/><text fill="#000000" font-family="sans-serif" font-size="14" lengthAdjust="spacing" textLength="24" x="527.5" y="232.9951">key</text><line style="stroke:#000000;stroke-width:1.0;" x1="522.5" x2="588.5" y1="238.2969" y2="238.2969"/><text fill="#000000" font-family="sans-serif" font-size="14" lengthAdjust="spacing" textLength="25" x="527.5" y="253.292">title</text><line style="stroke:#000000;stroke-width:1.0;" x1="522.5" x2="588.5" y1="258.5938" y2="258.5938"/><text fill="#000000" font-family="sans-serif" font-size="14" lengthAdjust="spacing" textLength="56" x="527.5" y="273.5889">projects</text><rect fill="none" height="60.8906" rx="5" ry="5" style="stroke:#000000;stroke-width:1.5;" width="66" x="522.5" y="218"/><path d="M604,108.5 L617,108.5 C643.6667,108.5 629.6361,73.3546 653,60.5 C681.4717,44.8352 712.9985,34.0711 745.3649,26.9051 " fill="none" style="stroke:#000000;stroke-width:1.0;stroke-dasharray:3.0,3.0;"/><path d="M745.9908,29.8479 L747.5721,26.4357 L744.739,23.9622 L752.722,25.3403 L745.9908,29.8479 " fill="#000000" style="stroke:#000000;stroke-width:1.0;"/><ellipse cx="604" cy="108.5" fill="#000000" rx="3" ry="3" style="stroke:#000000;stroke-width:1.0;"/><path d="M604,128.5 L617,128.5 C633.4924,128.5 636.7231,122.1573 653,119.5 C672.4394,116.3264 692.4943,113.4853 712.7599,110.9423 " fill="none" style="stroke:#000000;stroke-width:1.0;stroke-dasharray:3.0,3.0;"/><path d="M713.1293,113.9323 L715.0024,110.6653 L712.3905,107.9523 L720.2349,110.0188 L713.1293,113.9323 " fill="#000000" style="stroke:#000000;stroke-width:1.0;"/><ellipse cx="604" cy="128.5" fill="#000000" rx="3" ry="3" style="stroke:#000000;stroke-width:1.0;"/><path d="M604,148.5 L617,148.5 C696.3457,148.5 784.1941,148.5 858.6778,148.5 " fill="none" style="stroke:#000000;stroke-width:1.0;stroke-dasharray:3.0,3.0;"/><path d="M858.6778,151.5504 L860.9656,148.5 L858.6778,145.4496 L866.3037,148.5 L858.6778,151.5504 " fill="#000000" style="stroke:#000000;stroke-width:1.0;"/><ellipse cx="604" cy="148.5" fill="#000000" rx="3" ry="3" style="stroke:#000000;stroke-width:1.0;"/><path d="M604,169.5 L617,169.5 C633.4924,169.5 636.7196,175.8639 653,178.5 C711.7967,188.0202 776.2246,194.4303 835.0768,198.7406 " fill="none" style="stroke:#000000;stroke-width:1.0;stroke-dasharray:3.0,3.0;"/><path d="M834.8602,201.7485 L837.3328,198.9031 L835.2934,195.7326 L842.5966,199.2822 L834.8602,201.7485 " fill="#000000" style="stroke:#000000;stroke-width:1.0;"/><ellipse cx="604" cy="169.5" fill="#000000" rx="3" ry="3" style="stroke:#000000;stroke-width:1.0;"/><path d="M1235.5,296.5 L1248.5,296.5 C1312.3191,296.5 1382.1122,296.5 1444.4584,296.5 " fill="none" style="stroke:#000000;stroke-width:1.0;stroke-dasharray:3.0,3.0;"/><path d="M1444.4584,299.5261 L1446.728,296.5 L1444.4584,293.4739 L1452.0237,296.5 L1444.4584,299.5261 " fill="#000000" style="stroke:#000000;stroke-width:1.0;"/><ellipse cx="1235.5" cy="296.5" fill="#000000" rx="3" ry="3" style="stroke:#000000;stroke-width:1.0;"/><path d="M604,189.5 L617,189.5 C643.6667,189.5 629.7885,224.3723 653,237.5 C701.304,264.8192 758.619,278.4582 813.9142,284.4372 " fill="none" style="stroke:#000000;stroke-width:1.0;stroke-dasharray:3.0,3.0;"/><path d="M813.5969,287.5524 L816.2506,284.6752 L814.2316,281.3221 L821.7021,285.2307 L813.5969,287.5524 " fill="#000000" style="stroke:#000000;stroke-width:1.0;"/><ellipse cx="604" cy="189.5" fill="#000000" rx="3" ry="3" style="stroke:#000000;stroke-width:1.0;"/><path d="M446,188.5 L459,188.5 C468.6764,188.5 478.5247,186.7782 488.0454,184.0583 " fill="none" style="stroke:#000000;stroke-width:1.0;stroke-dasharray:3.0,3.0;"/><path d="M488.9505,186.9416 L490.208,183.3795 L487.1404,181.1749 L495.2539,181.7957 L488.9505,186.9416 " fill="#000000" style="stroke:#000000;stroke-width:1.0;"/><ellipse cx="446" cy="188.5" fill="#000000" rx="3" ry="3" style="stroke:#000000;stroke-width:1.0;"/><path d="M446,209.5 L459,209.5 C478.676,209.5 499.0628,216.619 515.9613,224.7739 " fill="none" style="stroke:#000000;stroke-width:1.0;stroke-dasharray:3.0,3.0;"/><path d="M514.5451,227.5805 L518.0663,225.8361 L517.3776,221.9674 L522.9778,228.3146 L514.5451,227.5805 " fill="#000000" style="stroke:#000000;stroke-width:1.0;"/><ellipse cx="446" cy="209.5" fill="#000000" rx="3" ry="3" style="stroke:#000000;stroke-width:1.0;"/><!--MD5=[01f9c99001da6f7b4f6e6a9a6ac4cbf6]
@startjson
!include models/organization.schema.json
@endjson

@startjson
{
  "$schema": "https://json-schema.org/draft/2020-12/schema",
  "$id": "https://open-needs.org/organization.schema.json",
  "title": "Open-Needs Organization schema",
  "type": "object",
  "properties": {
    "key": {
      "description": "An unique string as key, which represents the organization in urls.",
      "type": "string"
    },
    "title": {
      "description": "A title for the organization, which is used as textual representation in documents and websites.",
      "type": "string"
    },
    "description": {
      "description": "A description of the organization.",
      "type": "string"
    },
    "url": {
      "description": "An url to a webpage of the organization.",
      "type": "string"
    },
    "projects": {
      "description": "A list of projects belonging to the organization",
      "type": "array",
      "items": {
         "$ref": "https://open-needs.org/project.schema.json"
       }
    }
  },
  "required": ["key", "title", "projects"]
}
@endjson

PlantUML version 1.2022.0(Tue Jan 11 16:16:42 UTC 2022)
(GPL source distribution)
Java Runtime: OpenJDK Runtime Environment
JVM: OpenJDK 64-Bit Server VM
Default Encoding: UTF-8
Language: en
Country: null
--></g></svg>