<?xml version="1.0" encoding="UTF-8" standalone="no"?><svg xmlns="http://www.w3.org/2000/svg" xmlns:xlink="http://www.w3.org/1999/xlink" contentScriptType="application/ecmascript" contentStyleType="text/css" height="444px" preserveAspectRatio="none" style="width:756px;height:444px;background:#FFFFFF;" version="1.1" viewBox="0 0 756 444" width="756px" zoomAndPan="magnify"><defs/><g><rect fill="#DDDDDD" height="29.9375" style="stroke:#000000;stroke-width:2.0;" width="730" x="12" y="12"/><text fill="#000000" font-family="sans-serif" font-size="24" lengthAdjust="spacing" textLength="264" x="12" y="34.2773">Open-Needs WebApp</text><text fill="#000000" font-family="sans-serif" font-size="24" font-weight="bold" lengthAdjust="spacing" textLength="66" x="14" y="68.2148">User</text><text fill="#000000" font-family="sans-serif" font-size="24" lengthAdjust="spacing" textLength="8" x="80" y="68.2148">:</text><text fill="#000000" font-family="sans-serif" font-size="24" lengthAdjust="spacing" textLength="98" x="92" y="68.2148">Mister X</text><rect fill="#EEEEEE" height="35.9375" rx="10" ry="10" style="stroke:#000000;stroke-width:5.0;" width="136" x="199" y="50.9375"/><text fill="#000000" font-family="sans-serif" font-size="24" lengthAdjust="spacing" textLength="86" x="224" y="77.2148">Logout</text><line style="stroke:#AAAAAA;stroke-width:3.0;" x1="12" x2="742" y1="104.875" y2="104.875"/><text fill="#000000" font-family="sans-serif" font-size="24" font-weight="bold" lengthAdjust="spacing" textLength="118" x="14" y="138.1523">Selector</text><text fill="#000000" font-family="sans-serif" font-size="24" lengthAdjust="spacing" textLength="8" x="132" y="138.1523">:</text><rect fill="#EEEEEE" height="33.9375" style="stroke:#000000;stroke-width:2.0;" width="222" x="144" y="115.875"/><text fill="#000000" font-family="sans-serif" font-size="24" lengthAdjust="spacing" textLength="154" x="148" y="142.1523">organization</text><line style="stroke:#000000;stroke-width:2.0;" x1="344" x2="344" y1="115.875" y2="149.8125"/><polygon fill="#000000" points="350,127.875,362,127.875,356,139.8125" style="stroke:#000000;stroke-width:2.0;"/><text fill="#000000" font-family="sans-serif" font-size="24" lengthAdjust="spacing" textLength="8" x="372" y="138.1523">/</text><rect fill="#EEEEEE" height="33.9375" style="stroke:#000000;stroke-width:2.0;" width="142" x="384" y="115.875"/><text fill="#000000" font-family="sans-serif" font-size="24" lengthAdjust="spacing" textLength="88" x="388" y="142.1523">project</text><line style="stroke:#000000;stroke-width:2.0;" x1="504" x2="504" y1="115.875" y2="149.8125"/><polygon fill="#000000" points="510,127.875,522,127.875,516,139.8125" style="stroke:#000000;stroke-width:2.0;"/><line style="stroke:#AAAAAA;stroke-width:3.0;" x1="12" x2="742" y1="164.8125" y2="164.8125"/><text fill="#000000" font-family="sans-serif" font-size="24" font-weight="bold" lengthAdjust="spacing" textLength="74" x="14" y="198.0898">Filter</text><text fill="#000000" font-family="sans-serif" font-size="24" lengthAdjust="spacing" textLength="8" x="88" y="198.0898">:</text><text fill="#000000" font-family="sans-serif" font-size="24" lengthAdjust="spacing" textLength="436" x="106" y="198.0898">version=='1.0 and status=='open'</text><line style="stroke:#000000;stroke-width:2.0;" x1="102" x2="620" y1="203.75" y2="203.75"/><line style="stroke:#000000;stroke-width:2.0;" x1="102" x2="102" y1="197.75" y2="201.75"/><line style="stroke:#000000;stroke-width:2.0;" x1="620" x2="620" y1="197.75" y2="201.75"/><line style="stroke:#AAAAAA;stroke-width:3.0;" x1="12" x2="742" y1="220.75" y2="220.75"/><text fill="#000000" font-family="sans-serif" font-size="24" font-weight="bold" lengthAdjust="spacing" textLength="106" x="12" y="252.0273">Results</text><text fill="#000000" font-family="sans-serif" font-size="24" lengthAdjust="spacing" textLength="8" x="118" y="252.0273">:</text><text fill="#000000" font-family="sans-serif" font-size="24" font-weight="bold" lengthAdjust="spacing" textLength="82" x="16" y="283.9648">Cards</text><line style="stroke:#000000;stroke-width:2.0;" x1="12" x2="12" y1="261.6875" y2="289.625"/><line style="stroke:#000000;stroke-width:2.0;" x1="12" x2="104" y1="261.6875" y2="261.6875"/><line style="stroke:#000000;stroke-width:2.0;" x1="104" x2="104" y1="261.6875" y2="289.625"/><line style="stroke:#000000;stroke-width:2.0;" x1="104" x2="124" y1="289.625" y2="289.625"/><text fill="#000000" font-family="sans-serif" font-size="24" lengthAdjust="spacing" textLength="68" x="128" y="283.9648">Table</text><line style="stroke:#000000;stroke-width:2.0;" x1="124" x2="124" y1="261.6875" y2="289.625"/><line style="stroke:#000000;stroke-width:2.0;" x1="124" x2="202" y1="261.6875" y2="261.6875"/><line style="stroke:#000000;stroke-width:2.0;" x1="202" x2="202" y1="261.6875" y2="289.625"/><line style="stroke:#000000;stroke-width:2.0;" x1="202" x2="222" y1="289.625" y2="289.625"/><text fill="#000000" font-family="sans-serif" font-size="24" lengthAdjust="spacing" textLength="42" x="226" y="283.9648">List</text><line style="stroke:#000000;stroke-width:2.0;" x1="222" x2="222" y1="261.6875" y2="289.625"/><line style="stroke:#000000;stroke-width:2.0;" x1="222" x2="274" y1="261.6875" y2="261.6875"/><line style="stroke:#000000;stroke-width:2.0;" x1="274" x2="274" y1="261.6875" y2="289.625"/><line style="stroke:#000000;stroke-width:2.0;" x1="274" x2="294" y1="289.625" y2="289.625"/><text fill="#000000" font-family="sans-serif" font-size="24" lengthAdjust="spacing" textLength="120" x="298" y="283.9648">Flowchart</text><line style="stroke:#000000;stroke-width:2.0;" x1="294" x2="294" y1="261.6875" y2="289.625"/><line style="stroke:#000000;stroke-width:2.0;" x1="294" x2="424" y1="261.6875" y2="261.6875"/><line style="stroke:#000000;stroke-width:2.0;" x1="424" x2="424" y1="261.6875" y2="289.625"/><line style="stroke:#000000;stroke-width:2.0;" x1="424" x2="444" y1="289.625" y2="289.625"/><text fill="#000000" font-family="sans-serif" font-size="24" lengthAdjust="spacing" textLength="104" x="448" y="283.9648">Piechart</text><line style="stroke:#000000;stroke-width:2.0;" x1="444" x2="444" y1="261.6875" y2="289.625"/><line style="stroke:#000000;stroke-width:2.0;" x1="444" x2="558" y1="261.6875" y2="261.6875"/><line style="stroke:#000000;stroke-width:2.0;" x1="558" x2="558" y1="261.6875" y2="289.625"/><line style="stroke:#000000;stroke-width:2.0;" x1="558" x2="578" y1="289.625" y2="289.625"/><text fill="#000000" font-family="sans-serif" font-size="24" font-weight="bold" lengthAdjust="spacing" textLength="118" x="16" y="319.9023">Need #1</text><text fill="#000000" font-family="sans-serif" font-size="24" lengthAdjust="spacing" textLength="174" x="16" y="351.8398">some content</text><line style="stroke:#000000;stroke-width:2.0;" x1="14" x2="192" y1="295.625" y2="295.625"/><line style="stroke:#000000;stroke-width:2.0;" x1="14" x2="192" y1="359.5" y2="359.5"/><line style="stroke:#000000;stroke-width:2.0;" x1="14" x2="14" y1="295.625" y2="327.5625"/><line style="stroke:#000000;stroke-width:2.0;" x1="192" x2="192" y1="327.5625" y2="359.5"/><line style="stroke:#000000;stroke-width:2.0;" x1="192" x2="192" y1="295.625" y2="327.5625"/><line style="stroke:#000000;stroke-width:2.0;" x1="14" x2="14" y1="327.5625" y2="359.5"/><text fill="#000000" font-family="sans-serif" font-size="24" font-weight="bold" lengthAdjust="spacing" textLength="118" x="198" y="319.9023">Need #2</text><text fill="#000000" font-family="sans-serif" font-size="24" lengthAdjust="spacing" textLength="174" x="198" y="351.8398">some content</text><line style="stroke:#000000;stroke-width:2.0;" x1="196" x2="374" y1="295.625" y2="295.625"/><line style="stroke:#000000;stroke-width:2.0;" x1="196" x2="374" y1="359.5" y2="359.5"/><line style="stroke:#000000;stroke-width:2.0;" x1="196" x2="196" y1="295.625" y2="327.5625"/><line style="stroke:#000000;stroke-width:2.0;" x1="374" x2="374" y1="327.5625" y2="359.5"/><line style="stroke:#000000;stroke-width:2.0;" x1="374" x2="374" y1="295.625" y2="327.5625"/><line style="stroke:#000000;stroke-width:2.0;" x1="196" x2="196" y1="327.5625" y2="359.5"/><text fill="#000000" font-family="sans-serif" font-size="24" font-weight="bold" lengthAdjust="spacing" textLength="118" x="380" y="319.9023">Need #3</text><text fill="#000000" font-family="sans-serif" font-size="24" lengthAdjust="spacing" textLength="174" x="380" y="351.8398">some content</text><line style="stroke:#000000;stroke-width:2.0;" x1="378" x2="556" y1="295.625" y2="295.625"/><line style="stroke:#000000;stroke-width:2.0;" x1="378" x2="556" y1="359.5" y2="359.5"/><line style="stroke:#000000;stroke-width:2.0;" x1="378" x2="378" y1="295.625" y2="327.5625"/><line style="stroke:#000000;stroke-width:2.0;" x1="556" x2="556" y1="327.5625" y2="359.5"/><line style="stroke:#000000;stroke-width:2.0;" x1="556" x2="556" y1="295.625" y2="327.5625"/><line style="stroke:#000000;stroke-width:2.0;" x1="378" x2="378" y1="327.5625" y2="359.5"/><text fill="#000000" font-family="sans-serif" font-size="24" font-weight="bold" lengthAdjust="spacing" textLength="118" x="562" y="319.9023">Need #4</text><text fill="#000000" font-family="sans-serif" font-size="24" lengthAdjust="spacing" textLength="174" x="562" y="351.8398">some content</text><line style="stroke:#000000;stroke-width:2.0;" x1="560" x2="738" y1="295.625" y2="295.625"/><line style="stroke:#000000;stroke-width:2.0;" x1="560" x2="738" y1="359.5" y2="359.5"/><line style="stroke:#000000;stroke-width:2.0;" x1="560" x2="560" y1="295.625" y2="327.5625"/><line style="stroke:#000000;stroke-width:2.0;" x1="738" x2="738" y1="327.5625" y2="359.5"/><line style="stroke:#000000;stroke-width:2.0;" x1="738" x2="738" y1="295.625" y2="327.5625"/><line style="stroke:#000000;stroke-width:2.0;" x1="560" x2="560" y1="327.5625" y2="359.5"/><text fill="#000000" font-family="sans-serif" font-size="24" font-weight="bold" lengthAdjust="spacing" textLength="118" x="16" y="387.7773">Need #5</text><text fill="#000000" font-family="sans-serif" font-size="24" lengthAdjust="spacing" textLength="174" x="16" y="419.7148">some content</text><line style="stroke:#000000;stroke-width:2.0;" x1="14" x2="192" y1="363.5" y2="363.5"/><line style="stroke:#000000;stroke-width:2.0;" x1="14" x2="192" y1="427.375" y2="427.375"/><line style="stroke:#000000;stroke-width:2.0;" x1="14" x2="14" y1="363.5" y2="395.4375"/><line style="stroke:#000000;stroke-width:2.0;" x1="192" x2="192" y1="395.4375" y2="427.375"/><line style="stroke:#000000;stroke-width:2.0;" x1="192" x2="192" y1="363.5" y2="395.4375"/><line style="stroke:#000000;stroke-width:2.0;" x1="14" x2="14" y1="395.4375" y2="427.375"/><text fill="#000000" font-family="sans-serif" font-size="24" font-weight="bold" lengthAdjust="spacing" textLength="118" x="198" y="387.7773">Need #6</text><text fill="#000000" font-family="sans-serif" font-size="24" lengthAdjust="spacing" textLength="174" x="198" y="419.7148">some content</text><line style="stroke:#000000;stroke-width:2.0;" x1="196" x2="374" y1="363.5" y2="363.5"/><line style="stroke:#000000;stroke-width:2.0;" x1="196" x2="374" y1="427.375" y2="427.375"/><line style="stroke:#000000;stroke-width:2.0;" x1="196" x2="196" y1="363.5" y2="395.4375"/><line style="stroke:#000000;stroke-width:2.0;" x1="374" x2="374" y1="395.4375" y2="427.375"/><line style="stroke:#000000;stroke-width:2.0;" x1="374" x2="374" y1="363.5" y2="395.4375"/><line style="stroke:#000000;stroke-width:2.0;" x1="196" x2="196" y1="395.4375" y2="427.375"/><line style="stroke:#000000;stroke-width:2.0;" x1="10" x2="742" y1="10" y2="10"/><line style="stroke:#000000;stroke-width:2.0;" x1="10" x2="742" y1="431.375" y2="431.375"/><line style="stroke:#000000;stroke-width:2.0;" x1="10" x2="10" y1="10" y2="41.9375"/><line style="stroke:#000000;stroke-width:2.0;" x1="742" x2="742" y1="10" y2="41.9375"/><line style="stroke:#000000;stroke-width:2.0;" x1="10" x2="10" y1="291.625" y2="431.375"/><line style="stroke:#000000;stroke-width:2.0;" x1="742" x2="742" y1="291.625" y2="431.375"/><line style="stroke:#000000;stroke-width:2.0;" x1="10" x2="10" y1="227.75" y2="259.6875"/><line style="stroke:#000000;stroke-width:2.0;" x1="742" x2="742" y1="227.75" y2="259.6875"/><line style="stroke:#000000;stroke-width:2.0;" x1="10" x2="10" y1="171.8125" y2="211.75"/><line style="stroke:#000000;stroke-width:2.0;" x1="742" x2="742" y1="171.8125" y2="211.75"/><line style="stroke:#000000;stroke-width:2.0;" x1="10" x2="10" y1="111.875" y2="155.8125"/><line style="stroke:#000000;stroke-width:2.0;" x1="742" x2="742" y1="111.875" y2="155.8125"/><line style="stroke:#000000;stroke-width:2.0;" x1="10" x2="10" y1="41.9375" y2="95.875"/><line style="stroke:#000000;stroke-width:2.0;" x1="742" x2="742" y1="41.9375" y2="95.875"/><line style="stroke:#000000;stroke-width:2.0;" x1="10" x2="10" y1="259.6875" y2="291.625"/><line style="stroke:#000000;stroke-width:2.0;" x1="742" x2="742" y1="259.6875" y2="291.625"/><line style="stroke:#000000;stroke-width:2.0;" x1="10" x2="10" y1="211.75" y2="227.75"/><line style="stroke:#000000;stroke-width:2.0;" x1="742" x2="742" y1="211.75" y2="227.75"/><line style="stroke:#000000;stroke-width:2.0;" x1="10" x2="10" y1="155.8125" y2="171.8125"/><line style="stroke:#000000;stroke-width:2.0;" x1="742" x2="742" y1="155.8125" y2="171.8125"/><line style="stroke:#000000;stroke-width:2.0;" x1="10" x2="10" y1="95.875" y2="111.875"/><line style="stroke:#000000;stroke-width:2.0;" x1="742" x2="742" y1="95.875" y2="111.875"/><!--MD5=[35736742dcb87b95ddbf73a26598391f]
@startsalt
scale 2
 {+
     {* Open-Needs WebApp  }
     { **User**: | Mister X | [ Logout ] }
     ~~
     { **Selector**: |^organization^ | / | ^project^ | }
     ~~
     { **Filter**: | "version=='1.0 and status=='open'"}
     ~~
     **Results**:
     {/ **Cards** | Table | List | Flowchart | Piechart}
     {
         {+ **Need #1**
             some content
         } | {+
             **Need #2**
             some content
         } | {+
             **Need #3**
             some content
         } | {+
             **Need #4**
             some content
         }

         {+
             **Need #5**
             some content
         } | {+
             **Need #6**
             some content
         }
     }

}

@endsalt

PlantUML version 1.2022.0(Tue Jan 11 16:16:42 UTC 2022)
(GPL source distribution)
Java Runtime: OpenJDK Runtime Environment
JVM: OpenJDK 64-Bit Server VM
Default Encoding: UTF-8
Language: en
Country: null
--></g></svg>