<?xml version="1.0" encoding="UTF-8" standalone="no"?><svg xmlns="http://www.w3.org/2000/svg" xmlns:xlink="http://www.w3.org/1999/xlink" contentScriptType="application/ecmascript" contentStyleType="text/css" height="421px" preserveAspectRatio="none" style="width:616px;height:421px;background:#FFFFFF;" version="1.1" viewBox="0 0 616 421" width="616px" zoomAndPan="magnify"><defs><filter height="300%" id="f6llxn8y6ioji" width="300%" x="-1" y="-1"><feGaussianBlur result="blurOut" stdDeviation="2.0"/><feColorMatrix in="blurOut" result="blurOut2" type="matrix" values="0 0 0 0 0 0 0 0 0 0 0 0 0 0 0 0 0 0 .4 0"/><feOffset dx="4.0" dy="4.0" in="blurOut2" result="blurOut3"/><feBlend in="SourceGraphic" in2="blurOut3" mode="normal"/></filter></defs><g><!--MD5=[e8f3788ad7b97e8de68b4194558bc2a1]
cluster db--><rect fill="#AAAAAA" filter="url(#f6llxn8y6ioji)" height="96" style="stroke:#000000;stroke-width:1.5;" width="221" x="104" y="214.5"/><line style="stroke:#000000;stroke-width:1.5;" x1="104" x2="325" y1="234.7969" y2="234.7969"/><text fill="#000000" font-family="sans-serif" font-size="14" font-weight="bold" lengthAdjust="spacing" textLength="156" x="136.5" y="229.4951">Open-Needs Server</text><!--MD5=[3989f011846cf48c699ac26affb47e1f]
cluster dg--><rect fill="#FFFFFF" filter="url(#f6llxn8y6ioji)" height="191" style="stroke:#000000;stroke-width:1.5;" width="247" x="357" y="218"/><line style="stroke:#000000;stroke-width:1.5;" x1="357" x2="604" y1="238.2969" y2="238.2969"/><text fill="#000000" font-family="sans-serif" font-size="14" font-weight="bold" lengthAdjust="spacing" textLength="214" x="373.5" y="232.9951">Documentation Generators</text><!--MD5=[51a32c4ec503d26995ff86900fd263c9]
cluster ide--><rect fill="#FFFFFF" filter="url(#f6llxn8y6ioji)" height="171" style="stroke:#000000;stroke-width:1.5;" width="262" x="7" y="7"/><line style="stroke:#000000;stroke-width:1.5;" x1="7" x2="269" y1="27.2969" y2="27.2969"/><text fill="#000000" font-family="sans-serif" font-size="14" font-weight="bold" lengthAdjust="spacing" textLength="115" x="80.5" y="21.9951">IDE Extensions</text><!--MD5=[ac40dd4c03671801018102ca7be9c337]
entity rest--><rect fill="#FEFECE" filter="url(#f6llxn8y6ioji)" height="22.2969" style="stroke:#000000;stroke-width:1.5;" width="82" x="227" y="261"/><text fill="#000000" font-family="sans-serif" font-size="14" lengthAdjust="spacing" textLength="62" x="237" y="276.9951">REST API</text><!--MD5=[95e797a9df3a2e6815f040e8c1644678]
entity sql--><path d="M120,259.5 C120,249.5 156,249.5 156,249.5 C156,249.5 192,249.5 192,259.5 L192,284.7969 C192,294.7969 156,294.7969 156,294.7969 C156,294.7969 120,294.7969 120,284.7969 L120,259.5 " fill="#FEFECE" filter="url(#f6llxn8y6ioji)" style="stroke:#000000;stroke-width:1.5;"/><path d="M120,259.5 C120,269.5 156,269.5 156,269.5 C156,269.5 192,269.5 192,259.5 " fill="none" style="stroke:#000000;stroke-width:1.5;"/><text fill="#000000" font-family="sans-serif" font-size="14" lengthAdjust="spacing" textLength="52" x="130" y="286.4951">SQL DB</text><!--MD5=[a6172263536721aff71255a35372b272]
entity Sphinx--><rect fill="#FEFECE" filter="url(#f6llxn8y6ioji)" height="22.2969" style="stroke:#000000;stroke-width:1.5;" width="66" x="400" y="261"/><text fill="#000000" font-family="sans-serif" font-size="14" lengthAdjust="spacing" textLength="46" x="410" y="276.9951">Sphinx</text><!--MD5=[c60d22ee51a5f9d498fca28c0b27bbfa]
entity AsciiDoc--><rect fill="#FEFECE" filter="url(#f6llxn8y6ioji)" height="22.2969" style="stroke:#000000;stroke-width:1.5;" width="79" x="501.5" y="261"/><text fill="#000000" font-family="sans-serif" font-size="14" lengthAdjust="spacing" textLength="59" x="511.5" y="276.9951">AsciiDoc</text><!--MD5=[16caeee6749657e973da718820ee3d64]
entity MkDocs--><rect fill="#FEFECE" filter="url(#f6llxn8y6ioji)" height="22.2969" style="stroke:#000000;stroke-width:1.5;" width="76" x="400" y="363"/><text fill="#000000" font-family="sans-serif" font-size="14" lengthAdjust="spacing" textLength="56" x="410" y="378.9951">MkDocs</text><!--MD5=[13c7745981a6abb6004f7738a8ca5078]
entity 1--><rect fill="#FEFECE" filter="url(#f6llxn8y6ioji)" height="22.2969" style="stroke:#000000;stroke-width:1.5;" width="32" x="511" y="363"/><text fill="#000000" font-family="sans-serif" font-size="14" lengthAdjust="spacing" textLength="12" x="521" y="378.9951">...</text><!--MD5=[a2c0e4aaa3dd5fae87b701972f96ca54]
entity VS Code--><rect fill="#FEFECE" filter="url(#f6llxn8y6ioji)" height="22.2969" style="stroke:#000000;stroke-width:1.5;" width="79" x="30.5" y="50"/><text fill="#000000" font-family="sans-serif" font-size="14" lengthAdjust="spacing" textLength="59" x="40.5" y="65.9951">VS Code</text><!--MD5=[47118411630a086828e91136bfd90f67]
entity PyCharm--><rect fill="#FEFECE" filter="url(#f6llxn8y6ioji)" height="22.2969" style="stroke:#000000;stroke-width:1.5;" width="81" x="144.5" y="50"/><text fill="#000000" font-family="sans-serif" font-size="14" lengthAdjust="spacing" textLength="61" x="154.5" y="65.9951">PyCharm</text><!--MD5=[66ed83f40bbf7283604f6a36ced71fc0]
entity IntelliJ--><rect fill="#FEFECE" filter="url(#f6llxn8y6ioji)" height="22.2969" style="stroke:#000000;stroke-width:1.5;" width="58" x="41" y="132"/><text fill="#000000" font-family="sans-serif" font-size="14" lengthAdjust="spacing" textLength="38" x="51" y="147.9951">IntelliJ</text><!--MD5=[773709cb2207c097691e7e7d3d2cc787]
entity 2--><rect fill="#FEFECE" filter="url(#f6llxn8y6ioji)" height="22.2969" style="stroke:#000000;stroke-width:1.5;" width="32" x="134" y="132"/><text fill="#000000" font-family="sans-serif" font-size="14" lengthAdjust="spacing" textLength="12" x="144" y="147.9951">...</text><!--MD5=[d10672bb5e2bb769bc817e7102cbcce2]
entity jupyter--><rect fill="#FEFECE" filter="url(#f6llxn8y6ioji)" height="38.5938" style="stroke:#000000;stroke-width:1.5;" width="96" x="220" y="354.5"/><text fill="#000000" font-family="sans-serif" font-size="14" lengthAdjust="spacing" textLength="47" x="230" y="370.4951">Jupyter</text><text fill="#000000" font-family="sans-serif" font-size="14" lengthAdjust="spacing" textLength="76" x="230" y="386.792">Notebooks</text><!--MD5=[1e207a5ba7317c0d1d5fa9d16ea29e59]
link ide to rest--><path d="M264.8975,178.3254 C264.9087,178.6583 264.9198,178.9909 264.931,179.3235 C264.9756,180.6535 265.0201,181.9808 265.0644,183.3044 C265.1531,185.9515 265.2414,188.5838 265.3289,191.1944 C265.5039,196.4154 265.676,201.5493 265.8433,206.5395 C266.5125,226.5006 267.105,244.165 267.5,255.93 " fill="none" id="ide-rest" style="stroke:#A80036;stroke-width:1.0;"/><polygon fill="#A80036" points="267.66,260.94,271.3745,251.8185,267.5025,255.9425,263.3785,252.0705,267.66,260.94" style="stroke:#A80036;stroke-width:1.0;"/><polygon fill="#A80036" points="264.8975,178.3254,261.2012,187.4543,265.065,183.3226,269.1968,187.1864,264.8975,178.3254" style="stroke:#A80036;stroke-width:1.0;"/><!--MD5=[77cb65ffbbb32000cc2e1797ecb6654e]
link rest to jupyter--><path d="M268,288.45 C268,304.71 268,330.5 268,349.33 " fill="none" id="rest-jupyter" style="stroke:#A80036;stroke-width:1.0;"/><polygon fill="#A80036" points="268,354.44,272,345.44,268,349.44,264,345.44,268,354.44" style="stroke:#A80036;stroke-width:1.0;"/><polygon fill="#A80036" points="268,283.33,264,292.33,268,288.33,272,292.33,268,283.33" style="stroke:#A80036;stroke-width:1.0;"/><!--MD5=[dade056d9b8960e45c121d43e550f21d]
link rest to dg--><path d="M314.48,272 C322.83,272 331.1775,272 339.5238,272 C343.6969,272 347.8697,272 352.0423,272 C353.0855,272 354.1287,272 355.1718,272 C355.6934,272 356.215,272 356.7365,272 C356.8017,272 356.8669,272 356.9321,272 " fill="none" id="rest-dg" style="stroke:#A80036;stroke-width:1.0;"/><polygon fill="#A80036" points="356.9321,272,347.9321,268,351.9321,272,347.9321,276,356.9321,272" style="stroke:#A80036;stroke-width:1.0;"/><polygon fill="#A80036" points="309.3,272,318.3,276,314.3,272,318.3,268,309.3,272" style="stroke:#A80036;stroke-width:1.0;"/><!--MD5=[ef68d90474a742b57126066e35b93ea4]
link Sphinx to AsciiDoc--><!--MD5=[62a96e5a04864418c20039ed94766cfc]
link Sphinx to MkDocs--><!--MD5=[f9618cbb6984f41dbe09a6b056f5dc71]
link MkDocs to 1--><!--MD5=[ff922cfac7ed82eed9f1fe7ca2d9f22a]
link VS Code to PyCharm--><!--MD5=[d7cc43d8d193c85ec721c33e96dc2dbb]
link VS Code to IntelliJ--><!--MD5=[7e1689c1277de1946b11a1009ce4eaeb]
link IntelliJ to 2--><!--MD5=[24d604100683cb037b421bff13937a34]
@startuml
 card "Open-Needs Server" as db #aaaaaa {
     card "REST API" as rest
     database "SQL DB" as sql
 }

 card "Documentation Generators" as dg {
     card "Sphinx"
     card "AsciiDoc"
     card "MkDocs"
     card "..." as 1
 }

 card "Jupyter\nNotebooks" as jupyter

 card "IDE Extensions" as ide {
     card "VS Code"
     card "PyCharm"
     card "IntelliJ"
     card "..." as 2
 }
 ide <-d- -> rest
 jupyter <-u-> rest
 dg <-l-> rest

 @enduml

PlantUML version 1.2022.0(Tue Jan 11 16:16:42 UTC 2022)
(GPL source distribution)
Java Runtime: OpenJDK Runtime Environment
JVM: OpenJDK 64-Bit Server VM
Default Encoding: UTF-8
Language: en
Country: null
--></g></svg>