<?xml version="1.0" encoding="UTF-8" standalone="no"?><svg xmlns="http://www.w3.org/2000/svg" xmlns:xlink="http://www.w3.org/1999/xlink" contentScriptType="application/ecmascript" contentStyleType="text/css" height="530px" preserveAspectRatio="none" style="width:811px;height:530px;background:#FFFFFF;" version="1.1" viewBox="0 0 811 530" width="811px" zoomAndPan="magnify"><defs><filter height="300%" id="fho3klkikyg0g" width="300%" x="-1" y="-1"><feGaussianBlur result="blurOut" stdDeviation="2.0"/><feColorMatrix in="blurOut" result="blurOut2" type="matrix" values="0 0 0 0 0 0 0 0 0 0 0 0 0 0 0 0 0 0 .4 0"/><feOffset dx="4.0" dy="4.0" in="blurOut2" result="blurOut3"/><feBlend in="SourceGraphic" in2="blurOut3" mode="normal"/></filter></defs><g><!--MD5=[a7ba5e77c394f141bf9549b7afd8e9b5]
cluster df--><rect fill="#66AAFF" filter="url(#fho3klkikyg0g)" height="348" style="stroke:#000000;stroke-width:1.5;" width="792" x="7" y="79"/><line style="stroke:#000000;stroke-width:1.5;" x1="7" x2="799" y1="115.5938" y2="115.5938"/><text fill="#000000" font-family="sans-serif" font-size="14" font-weight="bold" lengthAdjust="spacing" textLength="213" x="296.5" y="93.9951">Documentation Framework</text><text fill="#000000" font-family="sans-serif" font-size="14" font-weight="bold" lengthAdjust="spacing" textLength="238" x="284" y="110.292">(MkDocs, AsciiDoc, Sphinx, ...)</text><!--MD5=[aa2f05b2676d7d34ffa7e771fb7634f3]
cluster client--><rect fill="#66FFAA" filter="url(#fho3klkikyg0g)" height="205" style="stroke:#000000;stroke-width:1.5;" width="744" x="31" y="168"/><line style="stroke:#000000;stroke-width:1.5;" x1="31" x2="775" y1="188.2969" y2="188.2969"/><text fill="#000000" font-family="sans-serif" font-size="14" font-weight="bold" lengthAdjust="spacing" textLength="148" x="329" y="182.9951">Open-Needs Client</text><!--MD5=[2ce6bf2f725ec3fddfdb3be23c2410e4]
cluster on--><rect fill="#66FFAA" filter="url(#fho3klkikyg0g)" height="138" style="stroke:#000000;stroke-width:1.5;" width="534" x="217" y="211"/><line style="stroke:#000000;stroke-width:1.5;" x1="217" x2="751" y1="231.2969" y2="231.2969"/><text fill="#000000" font-family="sans-serif" font-size="14" font-weight="bold" lengthAdjust="spacing" textLength="156" x="406" y="225.9951">Open-Needs Server</text><!--MD5=[b3c633cd6cd267e80b8ca5565fbac860]
entity parser--><rect fill="#FEFECE" filter="url(#fho3klkikyg0g)" height="22.2969" style="stroke:#000000;stroke-width:1.5;" width="64" x="73" y="130"/><text fill="#000000" font-family="sans-serif" font-size="14" lengthAdjust="spacing" textLength="44" x="83" y="145.9951">Parser</text><!--MD5=[a17e17d51b6b9b9bb192798e6f7f1fd3]
entity builder--><rect fill="#FEFECE" filter="url(#fho3klkikyg0g)" height="22.2969" style="stroke:#000000;stroke-width:1.5;" width="68" x="71" y="389"/><text fill="#000000" font-family="sans-serif" font-size="14" lengthAdjust="spacing" textLength="48" x="81" y="404.9951">Builder</text><!--MD5=[ea4128e1b5db6200a10193b8015cde63]
entity interface--><rect fill="#FEFECE" filter="url(#fho3klkikyg0g)" height="38.5938" style="stroke:#000000;stroke-width:1.5;" width="115" x="47.5" y="270"/><text fill="#000000" font-family="sans-serif" font-size="14" lengthAdjust="spacing" textLength="95" x="57.5" y="285.9951">Client specific</text><text fill="#000000" font-family="sans-serif" font-size="14" lengthAdjust="spacing" textLength="60" x="57.5" y="302.292">interface</text><!--MD5=[ac40dd4c03671801018102ca7be9c337]
entity rest--><path d="M242.756,266.9359 C247.1737,261.1878 252.1828,260.4621 256.6892,266.8339 C260.446,260.9985 265.452,260.1642 269.9781,265.9546 C273.049,260.0275 279.3749,260.0027 283.1193,265.1558 C287.4924,259.4564 292.2203,260.1262 295.8826,265.9436 C300.6808,259.3646 305.8457,259.0229 310.1929,266.4058 C314.2503,261.2948 319.4006,261.5706 323.0431,266.9158 C326.3896,259.9591 332.0414,260.8143 335.7891,266.5116 C340.3815,260.6385 345.8645,260.2968 350.2955,266.7023 C357.4996,268.7779 358.3214,274.3022 353.3806,279.3421 C359.3235,281.4805 359.3185,285.7576 355.537,289.885 C360.0164,295.5571 357.7493,299.8786 351.4824,301.9345 C357.1737,307.0317 356.6492,311.4349 349.4316,314.41 C346.3981,319.8949 341.4872,321.2971 337.5053,315.4041 C334.4173,323.6715 327.3661,322.6569 322.6856,317.1128 C319.2225,324.6117 314.3905,325.6278 308.7398,319.3229 C305.7701,325.5581 301.2122,325.7138 296.4559,321.404 C291.0312,327.6358 284.7825,327.3795 281.5105,319.1754 C276.7734,325.4294 271.7836,324.9565 268.148,318.0565 C261.9491,324.3014 258.0295,322.7231 254.9233,315.106 C249.8014,320.8899 245.4173,319.5089 242.3456,313.0071 C235.9519,312.1545 234.1737,307.9052 238.5771,302.9905 C231.0249,302.1214 227.8875,297.5543 232.4823,290.6742 C228.559,285.5382 230.4515,280.6418 236.9394,279.756 C232.1519,273.2578 234.0831,267.327 242.756,266.9359 " fill="#FEFECE" filter="url(#fho3klkikyg0g)" style="stroke:#000000;stroke-width:1.5;"/><text fill="#000000" font-family="sans-serif" font-size="14" font-weight="bold" lengthAdjust="spacing" textLength="25" x="248" y="285.9951">API</text><text fill="#000000" font-family="sans-serif" font-size="14" lengthAdjust="spacing" textLength="94" x="248" y="302.292">(REST based)</text><!--MD5=[58b586ad9caebef2cfd75194b6a3785c]
entity func--><rect fill="#FEFECE" filter="url(#fho3klkikyg0g)" height="87.4844" style="stroke:#000000;stroke-width:1.5;" width="145" x="427.5" y="246"/><text fill="#000000" font-family="sans-serif" font-size="14" font-weight="bold" lengthAdjust="spacing" textLength="120" x="437.5" y="261.9951">Need functions</text><text fill="#000000" font-family="sans-serif" font-size="14" lengthAdjust="spacing" textLength="5" x="557.5" y="261.9951">:</text><ellipse cx="443" cy="274.0938" fill="#000000" rx="2.5" ry="2.5" style="stroke:#000000;stroke-width:0.0;"/><text fill="#000000" font-family="sans-serif" font-size="14" lengthAdjust="spacing" textLength="52" x="450.5" y="278.292">validate</text><ellipse cx="443" cy="290.3906" fill="#000000" rx="2.5" ry="2.5" style="stroke:#000000;stroke-width:0.0;"/><text fill="#000000" font-family="sans-serif" font-size="14" lengthAdjust="spacing" textLength="61" x="450.5" y="294.5889">calculate</text><ellipse cx="443" cy="306.6875" fill="#000000" rx="2.5" ry="2.5" style="stroke:#000000;stroke-width:0.0;"/><text fill="#000000" font-family="sans-serif" font-size="14" lengthAdjust="spacing" textLength="29" x="450.5" y="310.8857">filter</text><ellipse cx="443" cy="322.9844" fill="#000000" rx="2.5" ry="2.5" style="stroke:#000000;stroke-width:0.0;"/><text fill="#000000" font-family="sans-serif" font-size="14" lengthAdjust="spacing" textLength="68" x="450.5" y="327.1826">represent</text><!--MD5=[7468467f3b6b392f1d176d828c753b77]
entity db--><path d="M642.5,268.5 C642.5,258.5 689,258.5 689,258.5 C689,258.5 735.5,258.5 735.5,268.5 L735.5,310.0938 C735.5,320.0938 689,320.0938 689,320.0938 C689,320.0938 642.5,320.0938 642.5,310.0938 L642.5,268.5 " fill="#FEFECE" filter="url(#fho3klkikyg0g)" style="stroke:#000000;stroke-width:1.5;"/><path d="M642.5,268.5 C642.5,278.5 689,278.5 689,278.5 C689,278.5 735.5,278.5 735.5,268.5 " fill="none" style="stroke:#000000;stroke-width:1.5;"/><text fill="#000000" font-family="sans-serif" font-size="14" font-weight="bold" lengthAdjust="spacing" textLength="73" x="652.5" y="295.4951">Database</text><text fill="#000000" font-family="sans-serif" font-size="14" lengthAdjust="spacing" textLength="54" x="652.5" y="311.792">(SQLite)</text><!--MD5=[57a5b41ed6b3ba96fe9b4a740eb3fdc7]
entity docs--><rect fill="#66AAFF" filter="url(#fho3klkikyg0g)" height="55.5938" style="stroke:#000000;stroke-width:1.5;" width="187" x="11.5" y="7"/><polygon fill="#66AAFF" points="181.5,12,181.5,26,193.5,26,193.5,18,187.5,12,181.5,12" style="stroke:#000000;stroke-width:1.5;"/><line style="stroke:#000000;stroke-width:1.5;" x1="187.5" x2="187.5" y1="12" y2="18"/><line style="stroke:#000000;stroke-width:1.5;" x1="193.5" x2="187.5" y1="18" y2="18"/><text fill="#000000" font-family="sans-serif" font-size="14" font-weight="bold" lengthAdjust="spacing" textLength="157" x="21.5" y="32.9951">Documentation files</text><text fill="#000000" font-family="sans-serif" font-size="14" lengthAdjust="spacing" textLength="78" x="21.5" y="49.292">(md, rst, ...)</text><!--MD5=[13975603d50ae75a37e8557c4b6b6bc4]
entity final--><rect fill="#66AAFF" filter="url(#fho3klkikyg0g)" height="55.5938" style="stroke:#000000;stroke-width:1.5;" width="189" x="10.5" y="461"/><polygon fill="#66AAFF" points="182.5,466,182.5,480,194.5,480,194.5,472,188.5,466,182.5,466" style="stroke:#000000;stroke-width:1.5;"/><line style="stroke:#000000;stroke-width:1.5;" x1="188.5" x2="188.5" y1="466" y2="472"/><line style="stroke:#000000;stroke-width:1.5;" x1="194.5" x2="188.5" y1="472" y2="472"/><text fill="#000000" font-family="sans-serif" font-size="14" font-weight="bold" lengthAdjust="spacing" textLength="159" x="20.5" y="486.9951">Final documentation</text><text fill="#000000" font-family="sans-serif" font-size="14" lengthAdjust="spacing" textLength="104" x="20.5" y="503.292">(HTML, PDF, ...)</text><!--MD5=[9423893651f9ffed8c6a12d25756b4db]
link rest to func--><path d="M362.28,289.5 C382.3,289.5 402.31,289.5 422.33,289.5 " fill="none" id="rest-func" style="stroke:#A80036;stroke-width:2.0;"/><polygon fill="#A80036" points="427.41,289.5,418.41,285.5,422.41,289.5,418.41,293.5,427.41,289.5" style="stroke:#A80036;stroke-width:2.0;"/><polygon fill="#A80036" points="357.06,289.5,366.06,293.5,362.06,289.5,366.06,285.5,357.06,289.5" style="stroke:#A80036;stroke-width:2.0;"/><!--MD5=[c84dda3cf0f26a0188958e07d99dc029]
link func to db--><path d="M577.88,289.5 C597.65,289.5 617.42,289.5 637.19,289.5 " fill="none" id="func-db" style="stroke:#A80036;stroke-width:2.0;"/><polygon fill="#A80036" points="642.22,289.5,633.22,285.5,637.22,289.5,633.22,293.5,642.22,289.5" style="stroke:#A80036;stroke-width:2.0;"/><polygon fill="#A80036" points="572.72,289.5,581.72,293.5,577.72,289.5,581.72,285.5,572.72,289.5" style="stroke:#A80036;stroke-width:2.0;"/><!--MD5=[5d49cc2c6d9fcbbfd867f59da20250e1]
link docs to parser--><path d="M105,63.05 C105,82.74 105,108.67 105,124.83 " fill="none" id="docs-to-parser" style="stroke:#A80036;stroke-width:2.0;"/><polygon fill="#A80036" points="105,129.92,109,120.92,105,124.92,101,120.92,105,129.92" style="stroke:#A80036;stroke-width:2.0;"/><!--MD5=[fd987d94ea57233ebe35d04182c3e6a6]
link parser to interface--><path d="M105,152.07 C105,175.14 105,232.34 105,264.88 " fill="none" id="parser-to-interface" style="stroke:#A80036;stroke-width:2.0;"/><polygon fill="#A80036" points="105,269.88,109,260.88,105,264.88,101,260.88,105,269.88" style="stroke:#A80036;stroke-width:2.0;"/><!--MD5=[fe7ef635770edfb3679cd57cc90a027d]
link interface to rest--><path d="M167.74,289.5 C187.77,289.5 207.79,289.5 227.81,289.5 " fill="none" id="interface-rest" style="stroke:#A80036;stroke-width:2.0;"/><polygon fill="#A80036" points="232.9,289.5,223.9,285.5,227.9,289.5,223.9,293.5,232.9,289.5" style="stroke:#A80036;stroke-width:2.0;"/><polygon fill="#A80036" points="162.52,289.5,171.52,293.5,167.52,289.5,171.52,285.5,162.52,289.5" style="stroke:#A80036;stroke-width:2.0;"/><!--MD5=[d3321e63b5958f031f88092a63473491]
link interface to builder--><path d="M105,309.4 C105,330.49 105,364.2 105,383.7 " fill="none" id="interface-to-builder" style="stroke:#A80036;stroke-width:2.0;"/><polygon fill="#A80036" points="105,388.8,109,379.8,105,383.8,101,379.8,105,388.8" style="stroke:#A80036;stroke-width:2.0;"/><!--MD5=[798ee4f45b071aeabdf2ab74d84e38eb]
link builder to final--><path d="M105,416.59 C105,427.45 105,442.34 105,455.72 " fill="none" id="builder-final" style="stroke:#A80036;stroke-width:2.0;"/><polygon fill="#A80036" points="105,460.95,109,451.95,105,455.95,101,451.95,105,460.95" style="stroke:#A80036;stroke-width:2.0;"/><polygon fill="#A80036" points="105,411.32,101,420.32,105,416.32,109,420.32,105,411.32" style="stroke:#A80036;stroke-width:2.0;"/><!--MD5=[e8dd0052ef8c5878c8403596a7ae0370]
@startuml
skinparam nodesep 70
skinparam ranksep 50

    artifact "**Documentation files**\n(md, rst, ...)" as docs #6af
    card "**Documentation Framework**\n(MkDocs, AsciiDoc, Sphinx, ...)" as df #6af {
        card "Parser" as parser
        card "Open-Needs Client" as client #6fa {
            card "Client specific\ninterface" as interface

            card "Open-Needs Server" as on {
                cloud "**API**\n(REST based)" as rest
                card "**Need functions**:\n*validate\n*calculate\n*filter\n*represent" as func
                database "**Database**\n(SQLite)" as db

                rest <=> func
                func <=> db
            }
        }
        card "Builder" as builder
    }


    artifact "**Final documentation**\n(HTML, PDF, ...)" as final #6af

    docs ==> parser
    parser ==> interface
    interface <=> rest

    interface ==> builder

    builder <==> final


@enduml

PlantUML version 1.2022.0(Tue Jan 11 16:16:42 UTC 2022)
(GPL source distribution)
Java Runtime: OpenJDK Runtime Environment
JVM: OpenJDK 64-Bit Server VM
Default Encoding: UTF-8
Language: en
Country: null
--></g></svg>